

    
<!--********* Copyright (c) 2024 Pareto Softare, LLC DBA Simplemaps.com ***************************************
************* Free for Commercial Use, full terms at  https://simplemaps.com/resources/svg-license ************
************* Attribution is appreciated! https://simplemaps.com *******************************************-->

<svg baseprofile="tiny"  height="1000"  stroke-linecap="round" stroke-linejoin="round" stroke-width=".5" version="1.2" viewbox="0 0 1000 1000" width="1000" xmlns="http://www.w3.org/2000/svg">
<defs>
    <style type="text/css">
     #features {
            filter: drop-shadow(-5px -5px 3px rgba(11, 10, 31, 1));
        }
        #features path {
            transition: transform 0.2s ease-in-out, filter 0.2s ease-in-out;
            cursor: pointer;
        }
        #features path:hover {
            transform: translate(-4px, -4px);
            filter: drop-shadow(4px 4px 3px rgba(0, 0, 0, 0.4));
        }
        #labels {
            pointer-events: none; /* La capa de texto ignora al ratón */
        }
        #labels text {
            font-family: Arial, sans-serif;
            font-size: 14px;
            fill: #222;
            text-anchor: middle;
            paint-order: stroke;
          
            stroke-width: 3px;
        }
      
      /* --- Colores por ID en tonos pastel --- */
        #PETAC { fill: #fAD1D6; } /* Tacna (Rojo -> Rosa claro) */
        #PEMDD { fill: #B8E4C0; } /* Madre de Dios (Verde -> Verde menta) */
        #PELOR { fill: #FFF8D6; } /* Loreto (Amarillo -> Amarillo pálido) */
        #PEAMA { fill: #B4C3ED; } /* Amazonas (Azul -> Azul claro) */
        #PECAJ { fill: #FDD5B6; } /* Cajamarca (Naranja -> Durazno) */
        #PETUM { fill: #D9A7E5; } /* Tumbes (Morado -> Lavanda) */
        #PEPIU { fill: #BFFBFA; } /* Piura (Cian -> Cian claro) */
        #PEUCA { fill: #FBB1F4; } /* Ucayali (Magenta -> Rosado) */
        #PEPUN { fill: #E8FCA6; } /* Puno (Lima -> Lima pálido) */
        #PEMOQ { fill: #FDE7E7; } /* Moquegua (Rosa -> Rosa muy pálido) */
        #PEARE { fill: #99D9D9; } /* Arequipa (Teal -> Aguamarina) */
        #PEICA { fill: #F3E4FF; } /* Ica (Lila -> Lila pálido) */
        #PELIM { fill: #E1CBAE; } /* Lima Province (Marrón -> Arena) */
        #PELMA { fill: #FFFAC8; } /* Lima (Beige - ya es claro) */
        #PECAL { fill: #D99999; } /* Callao (Granate -> Salmón oscuro) */
        #PEANC { fill: #DFFFEA; } /* Áncash (Menta -> Menta muy claro) */
        #PELAL { fill: #D9D999; } /* La Libertad (Oliva -> Verde pálido) */
        #PELAM { fill: #FFEEDD; } /* Lambayeque (Durazno -> Crema) */
        #PECUS { fill: #9999D3; } /* Cusco (Azul marino -> Azul acero claro) */
        #PEAYA { fill: #CCCCCC; } /* Ayacucho (Gris -> Gris claro) */
        #PEAPU { fill: #99E5E5; } /* Apurímac (Turquesa -> Turquesa claro) */
        #PEHUV { fill: #EDFBAF; } /* Huancavelica (Chartreuse -> Amarillo verdoso pálido) */
        #PESAM { fill: #FDD5E9; } /* San Martín (Rosa -> Rosa pastel) */
        #PEHUC { fill: #B6DCD7; } /* Huánuco (Verde azulado -> Verde agua) */
        #PEPAS { fill: #E8E8E8; } /* Pasco (Plata -> Plata claro) */
        #PEJUN { fill: #A7C5C9; } /* Junín (Azul oscuro -> Azul grisáceo) */
        #CALLAO { fill: #A7C5C9; } 
    
    </style>
  </defs>

 <g id="features">
  <path  data-nombre="Tacna" 
      data-equipos="8952"
      data-clientes="250"  d="M687.1 926.6l0.6-0.9 0.8-1.5 0.3-0.5 0.3-0.3 0.5-0.5 1.8-1.4 1.9-1.2 4.3-1.8 0.6-0.2 0.9-0.4 0.3-0.4 0.3-0.5 0.9-2.4 0.4-0.6 0.5-0.7 2-1.8 0.3-0.4 0.4-0.6 0.6-1 0.3-0.8 0.2-0.7 0.5-2.3 0.2-0.5 2.1-2.7 0.8-1.3 0.5-1.1 0.6-0.9 0.3-0.4 0.7-0.5 0.9-0.5 1.1-0.3 2.4-1.1 3.9-4.5 1.5-2 0.5-0.8 0-0.7 0.1-0.6-0.2-0.7-0.4-1 0-0.1-0.1-0.1-0.2-1.3 0.1-1 0.3-0.8 0.5-1.4 0.2-0.7 0.1-0.7 0.2-0.6 0.4-0.5 1.1-1.3 1.2-0.7 0.7-0.2 0.9 0 1 0.2 1.1 0.5 0.5 0.4 0.4 0.6 1.2 2.9 0.5 0.7 0.5 0.5 0.6 0.3 0.8 0.1 0.7 0.1 1.3-0.9 1-2.7 1 2.3 3.1 4.7 2.7 5.1 1.1 1.6 0.4 0.2 0.4 0.1 0.1 0 0.1 0 0.1 0.1 0.2 0.1 1.1 0.8 1.7 1.6 1 0.8 0.3 0.1 0.4 0.1 0.2 0 0.4 0.2 0.5 0.3 1.5 1 0.4 0.2 0.3 0 0.3 0 0.7-0.3 0.4-0.1 0.2-0.1 0.3 0 0.5 0 0.3 0.2 0.2 0.2 0.5 1 0.1 0.3 0.9 1 0.3 0.3 0.4 0.1 0.3 0.1 0.3-0.1 1.7-0.3 0.5-0.2 0.2 0 2.5 0.3 0.8 0.3 1.9 1.6 1 1 0.7 0.9 0.6 1.5 0.1 1.8-0.1 3.7-6.2 6.1-2.3 1.6-2.2 0.3-2.2-0.3-2.1 0.1-1.6 1.7-0.3 2.2 0.5 1.8 0.9 1.7 0.4 2.2 0.1 1.3 0.3 0.9 1 1.8 0.4 1 0.2 1-0.2 1-2.9 6.7-1.1 1.6-0.9 1-1.9 1.7-2.3 2.8-0.9 0.7-1.1 0.4-1.4 0-1.2 0.4-3.4 2-1.2 0.3-2.6 0.3-5.2-0.5-2.5 0.2-1.2 0.6-1.3-1.1-2.4-1.5-3-2.2-1.5-1-1.8-0.9-1.7-1-2.4-1.3-2.5-2.4-0.1-0.2-0.3-0.5-0.3-0.4-0.2-0.1-0.5-0.1-0.3-0.1-2.8-2.6-0.8-0.5-1.8-0.5-0.6-0.6-0.6-2-0.5-1-0.7-0.5-0.8-0.3-2-1.6-1-0.5-2.9-1-1-0.1-2.5-2.5-1.1-0.6-0.6-0.6-0.2-0.2z" id="PETAC" name="Tacna">
  </path>
  <path  data-nombre="Madre de Dios" 
      data-equipos="8952"
      data-clientes="250"   d="M794.6 685.5l-30.8 15.6-0.8 0.2-1.3-0.3-32.9-16.4-0.8-0.1-0.8 0.6-1.6-0.3-1.6-0.2-2.6 0.3-2.3-0.5-1.5-0.1-0.8 0.1-0.5 0.3-0.2 0.7 0.3 0.6 0.4 0.6 0.7 0.4 1.2 0.8 0.4 0.5 0 0.6-0.6 0.5-1 0.4-6.1 0.4-13.7-2.5-1.3 0.1-1.6-0.2-0.7-0.2-6.1-4-0.8-0.4-7.4-2-5.2-2-0.9-0.5-1.1-0.9-0.6-0.2-0.6-0.2-1 0-2.5 0.2-0.9 0-1.1-0.1-9.1-2.9-1.3-0.6-1.5-1.1-0.8-1.3-1.2-2.5-0.5-0.8-0.3-0.8 0-1.3 0.2-0.9 0.8-2.2 0.1-1.1-0.4-1.7-0.7-2.3-1.6-3.8-1.1-2.3-0.4-0.6-0.6-0.7-0.5-0.3-0.5-0.2-0.6-0.2-0.7 0-1.5-0.3-1.4-0.6-0.6-0.5-0.4-0.7-0.5-0.8-1.3-5.1-0.5-1.1-0.5-0.8-0.6-0.5-3.5-1.7-4-2.5-0.9-0.9-0.2-0.2-0.1-0.3-0.2-0.5-0.8-4.1 0-0.8 0.4-1.8 0.4-1.4 0.7-3.1 0.2-2 0.8-2.7 6.4-11.9 0.8-2.6 0.2-3.1 0-1.2 0.2-1.4 0.3-1.1 0.5-1.2 3.6-6.5 0.2-0.7 0-0.7-0.4-0.8-2.7-3.4 0-0.5 0-0.5 0.5-0.5 0.9-0.4 1.8 0.1 1 0.3 0.9 0.4 2 1.5 0.4 0.2 1.2 0.3 6.8-0.3 1.1-0.2 0.5-0.2 21.7-11.2 4.2-1.3 0.9-0.4 2-1.2 2.7-2.3 2.6-1.6 3-2.5 0.8-0.5 1.2-0.9 4.7-5.6 1.5-2.4 0.6-1.6 0.4-1.7 0.5-6.8 0.2-1.2 0.7-2.2 0.7-0.9 1.6-1.5 6.4-4.8 0.1 0-0.1 4.1 0 6.3 0 6.4 0 6.3 0 6.3 0 6.3-0.1 6.3 0 6.3 0 4.1 4.2-3.4 1.1-0.2 1.3 1.1 2.1 2.6 1.3 1.2 2.2 1.1 2.5 0.4 2.5-0.1 2.4-0.5 2-0.7 11.9-6.1 2 0.1 0.9 0.3 1 0.1 2-0.2 1.3 0.1 0.8 0.4 1.8 1.2 1.7 0.3 6-0.7 0.9 0.1 0.2 0.3 0.2 0.3 0.2 0.3 0.1 0.3 0.2 0.3 0.2 0.3 0.2 0.3 0.1 0.3 5.1 9 5.1 9 5.1 9 5.1 9.1 5.1 9 5.1 9 5.1 9.1 5.1 9 1.2 2.2 0.2 0.4-0.5 0.2-0.3 0.5-0.3 1-0.4 0.8-0.5 0.7-0.7 0.6-1.5 0.8-0.6 0.6-0.5 0.7-0.1 0.8 0.5 0.5 1.6 0.4 0.5 0.6-1.2 2.2-0.3 0.5-4.1 1.1-1 0.6-0.7 1.1-0.6 1.4-1.1-0.2-0.6 1-0.5 1.2-1.6 1.2-0.2 1.1 0 2.2 0.6 4.9z" id="PEMDD" name="Madre de Dios">
  </path>
  <path  data-nombre="Loreto" 
      data-equipos="8952"
      data-clientes="250"  d="M550.1 412.5l-0.1 0-0.5-0.6-0.6-0.5-0.6-0.3-2.3-1.1-7.9-3-2.5-0.7-1.3-0.1-3.4-0.1-2.2-0.7-4.7-2.9-1.9-0.3-0.8 0.1-0.7 0.3-0.5 0.6-0.4 1.1 0 0.9 0.2 0.8 0.4 0.7 0.4 1.3 1.2 6.7 0.1 1.7-0.2 3.1 0.7 4.5-0.1 4.4-0.2 0.8-0.2 0.7-0.5 0.7-0.7 0.6-0.9 0.6-3.1 1.7-1.2 0.4-11.1 1.9-4 1.3-1.6 0.8-2.8 2-1 0.5-1.2 0.5-2.4 0.5-6.1 0-0.8-0.4-0.6-0.2-0.5 0-0.6 0.6-0.5 1-0.2 0.8-0.1 0.8-0.3 0.6-0.4 0.6-0.4 0.4-1.2 0.1-0.6-0.1-0.6 0.1-0.7 0.3-0.9 0.6-0.7 0.6-0.5 1-0.1 0.9 0 1 0.5 1.9 0.3 0.6 0.8 1.3 2.6 3 0.3 0.6 0.2 0.8-0.2 0.7-0.6 0.4-1.1 0-1-0.4-0.8-0.4-3.6-3-0.6-0.5-0.6-0.3-0.8-0.2-1.1 0-0.8 0.4-0.8 0.8-0.5 0.8-0.7 0.9-0.9 0.8-3.4 2.2-1.5 1.4-1.5 1.6-2 1.7-4.9 2.3 1-3.8 1.4-4.7 0.4-2.7 0.5-2.5 0.3-0.9 0.3-0.8 4.7-5.6 0.4-0.7 0.3-0.7 0.3-0.9 0-1.2-0.2-1.7-1.6-4.9-11.9-25.3-1.1-3.2-0.5-2.5-0.4-2.8 0.7-10.8-0.1-1.7-0.4-1-0.3-0.8-0.4-1.4-0.1-0.4 0.1-0.4 0.8-2.6 2.4-5.3 1.6-2.3 1-0.8 0.6-0.3 1.1-0.3 1-0.2 1.3 0 1.2 0.2 1.9 0.5 1 0.5 1.5 0.9 1.2 1 4.2 5.4 0.6 0.5 0.6 0.3 0.8 0.1 0.7-0.1 0.6-0.4 0.6-0.4 0.4-0.6 0.9-2 2.5-3.7 0.4-0.6 0.2-0.6 0.9-4 0-0.5 0-1.8 1.4-14.1-0.1-0.7 0-0.6-0.2-0.6-0.3-0.7-1-1.7-0.4-0.5-3.3-3.4-1.5-0.9-3.1-1.2-2.6-0.7-6-1.2-3.2-0.2-4.5 0.3-2 0.4-0.9 0.1-1.1-0.1-1.8-0.6-1-0.6-0.8-0.6-3.9-4-1.2-1.7-1.1-1.3-0.7-0.5-0.8-0.4-1-0.2-0.8-0.1-1.5 0.5-7.1 5-1.4 0.7-1.4 0.3-0.9 0.1-1-0.1-1.4-0.5-0.9-0.4-1.5-1-1.5-1.6-1.2-2.2-1.5-5-0.8-1.5-1.4-1.6-2.5-1.9-1.2-0.8-1.1-0.5-1.7-0.6-10.1-0.4-1.4-0.4-2-1-2.5-2.1-1.2-1.3-0.4-0.6-1.9-1.7-3.1-1.6-5.7-2.2-1.3-0.8-2.2-1.6-1-1.2-3.4-7.7-1.1-4.6-0.7-7-0.6-2.5-0.5-1.4-0.2-0.8-0.1-0.9-0.1-1.3 0.2-2.6 0.4-1.7 1.2-2.9 0.8-1.3 0.9-1.2 1-1 0.7-0.6 0.3-0.4 1.2-2.1 1.5-3.4 1.1-2.1 0.4-0.9 0.4-1.4 0.2-3.5-0.2-3.1 0.6-8.5 0.4-1.9 0.7-1.4 0.1-0.6-0.3-0.7-0.2-0.6-0.4-1.3-0.4-3.2-0.2-0.8-0.5-1.1-0.3-0.7-2.2-3-0.2-0.5-0.2-0.7-0.2-1-0.1-1.2 0.1-1.7 0.1-1.2 0-0.6-0.1-0.7-1-3-0.5-4.4-0.6-1.9-1.4-3.4-2.4-4.2-0.2-0.7-0.1-0.8-0.2-4-0.1-1-1.1-3.8-0.8-5.3 1.3-0.5 6.2-2.1 6.1-2.2 6.2-2.1 6.1-2.2 6.1-2.1 6.2-2.2 6.1-2.1 6.1-2.2 4.5-1.5 0.8-0.5 2.1-1.3 2.8-2.1 2.9-2.2 2.9-2.3 2.9-2.2 2.9-2.2 2.9-2.3 3-2.2 2.9-2.2 2.9-2.3 2.4-2.8 2.5-2.8 2.4-2.9 2.4-2.8 2.5-2.9 2.4-2.8 2.4-2.8 2.5-2.9 1.9-2.3 2.7-2.5 0.8-0.9 0.4-0.4 0.6-1.7 0.7-2.9 1.5-5.7 1.5-5.8 1.4-5.7 1.5-5.8 0.6-2.4 0.3-0.4 1.4 1.3 0.6 0.7 0.3 0.5 0.5 0.4 1.1 0 2.1-0.2 2.3 0 0.4 0 0-0.4-0.3-0.5-0.5-0.4-0.4-0.5-0.1-0.5 0.1-0.8 0-0.4-2.2-7.4 0.1-0.6 0.3-0.9 0.1-0.5-0.1-0.5-0.2-0.9 0-0.5 0.2-0.6 0.5-0.3 0.6-0.3 0.5-0.5 0.1-0.4-0.1-0.4-0.1-0.3-0.1-0.4 0.2-1.9-0.2-0.9-0.5-0.9-0.3-0.1-0.4 0.2-0.3 0-0.2-0.2-0.2-0.6-0.2-0.2-1.9-1.5-0.2-0.3-0.3-0.1-0.6 0-0.5-0.1-0.6-0.3-0.9-0.9-1.4-1.9-0.9-2.1-1.5-5.5-0.6-0.7-0.8-0.5-1-0.3-0.6-0.3-1-1-0.6-0.4-0.5 0-1 0.1-0.5-0.1-0.4-0.5-0.5-1-0.3-1.1 0.3-0.8 0.7-0.3 0.9 0.3 0.9 0.3 0.8 0.2 0.8-0.1 0.7 0 0.7 0.1 3.4 1.9 1.3 0.1 1.3-0.9 0.4 0 1.7 0.3 0.7-0.1 0.7-0.2 0.6-0.3 1.1-0.8 0.6-0.7 0.7-0.3 0.8-0.6 0.6-0.7 0.3-0.6 0.1-1 0.5-0.5 0.7-0.1 1 0.1 2.2 0.6 1 0.5 1 0.7 1.9 2.6 0.6 0.6 0.4 0.1 0.8 0.1 0.5 0.1 0.3 0.2 2 2.2 0.6 0.5 1.1 0.5 1.6 0.3 0.9 0.3 0.4 0 0.6-0.5 1.2-1.9 0.6-0.1 1 0.9 0.7 0.9 1.7 3.4-1.4 1-0.4 0.7 0.9 0.3 0.5 0 1 0.3 1.2 0.1 0.3 0.2 0.2 0.2 0.3 0.2 0.3 0.3 0.1 0.2 0.3 0.2 0.7 0 0.2-0.1 0.4-0.2 0.4-0.3 0.5-0.1 0.5 0.4 1.3 2.3 2.1 2.2 1.3 1 2.9 1.8 0.6 0.5 0.6 0.7 0.5 0.7 0.2 0.1 0.7 0 0.2 0.2 0.1 0.5 0.1 0.5 0 0.1 0.1 0.4 2.3 5-0.1 0.4-0.6 0.5-0.2 0.4-0.1 1 0.4 0.7 1.6 1.8 0.4 0.2 0.4 0.2 0.9 0 0.4 0.2-0.4 0.7 0.3 0.6 0.5 0.5 0.2 0.6-0.3 0.6-0.7 0-0.7-0.2-0.6 0.2-0.4 0.5 0.3 0.5 1.2 0.8 0.5 0.6 0.7 2.3 1.1 1.4 1.3 0.7 2.9 0.5 3 1.2 1.3-0.1 0.8-1.4 0.5 0.5 1.2 3.4 0.2 0.4 0.4 0.4 0.6 0.2 0.3-0.1 0.2-0.2 0.6-0.3 0.2-0.2 0.1-0.3 0.3-0.1 0.4 0.3 0 0.4-0.4 0.9 0 0.4 0.7 0.3 1.5-0.3 0.8 0.3 0.3 0.4 0.8 2 0.8 1.4 0.5 0.5 0.7 0.4 1.3 0.5 0.8 0.1 0.6 0 0.8-0.4 0.8-1.2 0.7-0.3 0.4 0.9 0.7 0.7 0.9 0.5 1.1 0.2 0.6 0.2 0.9 0.7 1.2 0.3 0.2 0.4 0.1 0.6 0.4 0.7 0.1 0.6 0.1 0.2 0.2 0 0.6-0.1 0.2 0.1 0.1 0.3 0.1 0.4 0.1 1.1 0.1 0.3 0.2 0.4 0.3 0.3 0.8 0.4-0.3 0.5-0.7 0.9 0.4 0.8 1.8 0.8 0.6 0.9 1 0.7 0.4 0.6 0.1 0.4-0.1 0.6 0.1 0.6 0.5 2 0 1-1.2 0.7-0.4 0.7-0.6 1.6-0.1 1.9 1 1.2 3.1 2 0.1 0.1 0.2 0.7 0.1 0.2 0.2 0 0.5-0.1 0.7 0.1 0.5 0 0.6 0.1 0.6 0.4 1.2 1 0.5 0.1 0.4-0.5 0.8-0.8 0.7-0.1 1.7 0.4 0.3-0.1 0.2-1.3 0.5 0 1.3 1.4 0.4 0.4 0.5 0.2 0.4 0.2 0.3 0.6-0.3 1.8 0.2 0.7 1.2 1.3 0.3 0.8-0.1 0.5-0.5 1.2-0.1 0.7 0.2 0.8 0.3 0.6 0.9 1.3 0.3 0.9 0.3 1.1 0.3 1 0.7 0.6-1.4 2.4-0.5 1.1-1.8 1.6-0.4 0.5-0.2 0.3 0 0.5 0.1 0.5 0.4 0.7 0.1 0.3 0.2 0.3 0.7 0.5 0.1 0.2 0.3 1.5 0.1 0.4 0.8 0.5 2.1 0.5 0.4 0.5 0.3 1 0.7-0.6 0.6-1.1 0.1-0.5 3.3 1.8 0.2 0.3 0.7 0.6 0.8 2.3 0.5 0.8 0.4 0.3 0.4 0 2.1-0.4 0.7-0.2 0.6-0.6 1.3-0.5 1.3-0.6 0.8 0.3 1.3 0.9 0.1-0.6 0.2-0.5 0.4-0.3 0.6-0.3 0.3 0.3 0.2 0.5 0.1 0.5 0.2 1.3 0.3 0.1 0.8-0.3 0.6-0.6 1.3-2.7 0.6-0.7 0.9 0.1 0.8 0.5 2.3 1.8 0.9 0.2 5 0.8 0.4 0.4 0.3 0.6 0.6 0.6 0.9 0.5 0.9 0.2 1.1-0.1 1.9-0.5 1.2-0.2 0.4-0.1 0.1-0.3 0-1 0.2-0.2 1.3-0.3 0.5 0 3.1 0.7 0.7-0.2 2.2-2.5 1.4-1.2 1.3-0.5 1.6 0 3.1 0.4 0.8-0.2 0.6-0.6 0.3-1.1 0.3-0.4 2.3-1.8 1.8-2.7 0.2-0.5 0.5 0 2.8-1.8 1.1-0.5 0.4 0.3-0.1 1.7 0.4 0.8 1-0.1 1.6-0.9 1.2 0.2 0.9 0.6 0.9 0.7 1 0.6 2.8 0.5 0.6 0.5 0.2 0.9 0.1 2 0.3 0.8 0.8 0.3 0.4-0.5 0.5-1.9 0.6-0.7 0.5 0.2 0.9 1.5 1.2 1.5 0.1 0.5-0.1 0.4-0.7 0.6-0.2 0.4 0.6 1 1.6-0.3 3.5-1.7 0.4 0.6 0.9-0.2 1-0.5 0.8-0.3 0.5 0.1 0.6 0.5 0.5 0.1 0.5-0.1 0.9-0.7 1.4-0.7 1-2.3 1.1-0.5 1.3-0.3 0.7 0 1.2 0.8 0.6 0.1 0.6-0.1 0.4-0.2-0.4-1.2-0.1-1.2 0.5-0.6 1.4 0 2 0.9 1.3 0.2 1-0.4 1.5 0.9 2.5 2.7 1.7 1.1 1.8 0.6 0.9 0.2 1.2 0.2 0.3 0.2 0.1 0.4 0 1.4 0.2 0.1 1.5 1.3 0.3 0.5 0.1 0.5 0 0.7 0.1 0.6 0.3 0.3 2 0 0.4-0.2 0-0.5 0-0.6 0.1-0.4 0.9-0.5 0.6 0.4 0.6 0.7 0.8 0.3 0.8 0.1 0.9 0.3 0.9 0.4 0.6 0.6 0.3 0.5 0.1 0.5 0.3 0.4 0.6 0.3 0.5 0 1.1-0.5 0.6-0.2 1 0 1.1 0.1 0.6 0.5-0.2 1.1-0.3 0.1-0.8 0.3-0.2 0.3 0 0.4 0.2 0.4 0.3 0.4 0.3 0.1 1.2-0.3 0.9-0.6 1-0.3 1.1 0.5 0.6 0.9 0.7 2.1 0.5 0.9 0.9 0.3 0.8-0.4 0.8-0.2 1 0.8 0.2 0.5-0.1 0.4 0.1 0.5 0.5 0.2 0.4-0.1 0.3-0.4 0.2-0.5 0.3-0.5 1-0.6 0.5 0.3 0.6 2.2 0.3 0.7 0.4 0.6 0.6 0.4 0.3 0.1-0.1 0.1-1 1.7-3.9 6-3.8 6-3.8 5.9-3.9 6-3.8 6-3.8 6-3.8 6-3.9 6-1.6 2.5 2.1 0.3 6.6 3.4 0.6 0.4 2.6 0.6 1.3 0.1 1.2-0.6 1.9-1.7 1.1-0.7 1.4-0.1 1.8 0.6 1.9 1.4 1.6 1.6 1.1 1.7 0.6 1.7 0.3 1.8 0.5 1.6 1.3 1.3 5 2.5 1.4 1.2 1 1.2 0.9 1.2 1.3 2.8 0.1 1.3-0.4 1.3-0.9 1.2-1.6 1.2-0.7 0.1-0.7-0.2-0.6-0.4-0.6-0.6-0.2-0.4-0.3-1.2-0.5-0.9-1-0.4-1.1 0.1-0.9 0.5-0.6 0.9-0.8 1.8-0.9 0.9-0.6-0.7-0.3-0.8-0.4-0.5-0.4-0.1-0.4 0.1-0.5-0.2-2.4-1.9-0.4-0.6-0.1-0.9 0.4-1.9-0.1-1-0.3-0.7-0.6-0.6-0.6-0.2-0.9 1.4-0.6-0.2-1.2-1.1-0.8-0.3-0.8-0.1-0.7 0.2-0.7 0.4-2 1.6-0.8 0.2-0.5-0.3-0.1-0.7-0.2-0.7-0.8-0.3-0.8 0.4-0.3 0.8-0.2 0.9-0.4 0.5-2.3-1.4-0.1-0.7 0.2-0.9-0.1-0.7-0.7-0.2-0.8 0.4-0.5 0.5-0.5 1.5-0.5 0.4-0.9 0-3.1-0.8-0.5 0-2.3 1.2-0.6 0.5-0.2 0.7 0.4 1.2-0.1 0.4-0.8 0.3-0.7 0.3-0.4 0.8-0.2 0.9-0.5 0.8-1.5 1.4-0.6 0.8-0.4 0.9-1.1 1-1-0.9-0.7-0.9-0.3 1.1-0.9 0.8-2.6-1.1-1.2 0.5-0.6 1.1-0.4 0.2-0.8-0.1-0.4-0.4-0.5-1.1-0.4-0.3-0.8 0.5-0.7 1.1-0.6 0.8-1.4-1.5-1.1-0.2-1.2 0.2-0.7 0.7-0.2 0.6 0.1 0.5 0 0.5-0.5 0.6-0.1 0-0.3-0.2-0.3 0-0.3 0.1-0.5 0.6-0.1 0.2-0.7 0.3-0.4-0.3-0.3-0.6-0.5-0.3-0.6-0.1-2.3 0.3-1.5 0-0.7 0.1-0.7 0.3-0.3 0.5-0.3 1-0.3 0.3-0.4 0-1.2-0.3-0.7 0.1-2.2 1 0.2-1.1-0.5 0.2-1 1-0.6 0.2-0.4 0-0.4-0.2-0.5-0.5-0.8-0.6-0.5 0.2-0.6 0.4-0.9 0.1-0.5-0.1-1.2-0.6-0.5 0-0.4 0.2-0.1 0.3-0.1 0.3-0.1 0.3-0.4 0.1-4 0.4-0.8 0.3-1.3 0.8-2.3 2.3-1.5 0.4-0.8 0.7-0.4 0.3-0.4 0.1-0.5-0.2-0.4-0.2-0.4 0-0.4 0.4-0.9 1.8-0.5 0.7-1 0.8-2.7 1.5-2.5 1.8-0.8 0.5-0.9 0.3-0.7 0-1.8-0.2-0.6 0.1-0.2 0.4-0.1 0.3-0.3 0.3-2 0.5-0.5 0.6-0.4 2.7-0.5 0.8-0.8 0.5-1.1 0.6-0.2 0.1-0.7 0-0.2 0.1-0.2 0.2 0 0.3 0 0.3 0 0.2-0.3 0.4-0.1 0.5-0.3 0.2-0.8 0.1-0.9 0.1-0.8 0.4-0.8 0.6-1.2 1.3-1.4 0.6-0.6 0.6-0.2 0.6 0 0.4-0.2 0.5-0.4 0.4-0.5 0.1-2.6 0-1-0.3-1-0.1-0.6 0.5-0.6 0.8-0.8 0.4-2 0.4-0.3-0.1-0.6-0.2-0.2 0.1-0.2 0.2 0 0.7-0.1 0.2-0.7 0.4-0.4 0.1-0.6 0-1.2 0.3-0.2 0.7 0.4 0.9 0.4 0.7 0.3 0.8 0.3 3-0.1 0.7-0.5 0.7-0.5 0.7-0.4 0.7-0.3 2.1-0.2 0.8-1.4 3-0.5 1.6 0.2 1.6 0.5 1.6 0 1.3-0.8 4.6-0.5 1.4-0.7 1.4-5.1 6.7-1.7 1.6-2.8 6.2-1.1 1.7-0.7 1.9-0.1 2.2 0.5 1.2 2.4 2.7 0.2 0.8 0.5 4 0.3 1.1 1.1 2.2 0.3 1.2 0 1-0.2 1.1-0.8 2-1.1 2.1-1.4 1.3-1.7 0.9-2.2 0.6-3.4 0.1-1.1 0.3-1.7 1.6-1.9 1.2-3.3 2.8-4 2.3-2.4 2-1.4 0.8-0.6 0.5-0.6 1.3-0.5 0.6-2 1.3-0.5 0.5-0.3 0.9-0.1 2.7-1.2 4.4-0.7 1.4-0.3 1.2 0.3 0.8 0.1 0.4 3.4 4.8 0.5 2.1 0.4 1 0.1 0.9-0.5 0.9-0.8 0.5-1 0.2-1.9-0.1-1.3 0.1-0.8 0.2-1.8 1.1-1.1 0.4-0.9 0-2-0.8-1 0 0.1 0.9 1.4 2.4 0.3 1.2-0.2 0.8-0.4 0.8-0.1 1.1-0.6 1-0.6 0.3z" id="PELOR" name="Loreto">
  </path>
  <path   data-nombre="Amazonas" 
      data-equipos="8952"
      data-clientes="250"   d="M363.4 188.9l0.8 5.3 1.1 3.8 0.1 1 0.2 4 0.1 0.8 0.2 0.7 2.4 4.2 1.4 3.4 0.6 1.9 0.5 4.4 1 3 0.1 0.7 0 0.6-0.1 1.2-0.1 1.7 0.1 1.2 0.2 1 0.2 0.7 0.2 0.5 2.2 3 0.3 0.7 0.5 1.1 0.2 0.8 0.4 3.2 0.4 1.3 0.2 0.6 0.3 0.7-0.1 0.6-0.7 1.4-0.4 1.9-0.6 8.5 0.2 3.1-0.2 3.5-0.4 1.4-0.4 0.9-1.1 2.1-1.5 3.4-1.2 2.1-0.3 0.4-0.7 0.6-1 1-0.9 1.2-0.8 1.3-1.2 2.9-0.4 1.7-0.2 2.6 0.1 1.3 0.1 0.9 0.2 0.8 0.5 1.4 0.6 2.5 0.7 7 1.1 4.6 3.4 7.7-1.8 1.5-1.4 2.1-0.3 0.8-0.2 0.6 0 0.7 0.8 4.8 0 0.8-0.1 1.1-0.2 0.7-0.9 1.4 0.4 2.1 4.7 8.6 1.3 3 1.2 1.7 0.7 0.7 1.4 0.7 1.9 0.6 6.3 1.7 2.5 1 1.6 0.8 0.9 0.7 1.1 1.2 1.2 2 0.6 1.2 0.2 1 1.3 3.8 0.1 1.5-1.3 1.6-4.3 3.7-0.9 1-0.7 0.8-0.3 0.8-0.4 1.5-0.3 0.9-0.6 1.2-0.9 0.8-0.9 0.5-3.3 0.9-0.8 0-1.4-0.2-1-0.1-2.6 0.3-0.8-0.1-0.8-0.2-0.7-0.3-1.5-0.9-1.3-0.6-0.9-0.2-1.3 0.8-0.4 0.5-0.4 0.8-0.3 1.7 0 2.8-0.5 4.8-1.4 4.3-0.2 1.5 0.1 1.1 0.2 0.8 0.4 0.6 0.4 0.5 0.8 0.6-2.7 0.3-1.1 0-1.6-0.5-1-0.2-0.8 0-0.8 0.2-1.1 0.4-2.1 0.4-0.9 0.3-0.7-0.6-0.1-0.5-0.1-1.2-0.6-1.4 0.1-1 0.3-1.1 0.1-0.9-0.2-0.4-0.6-0.7-0.2-0.2 0.2-0.5 0.3-0.3 0.4-0.1 0.1-0.3 0-2.2-0.2-1-0.5-1-2.6-4.5-2-5.3-0.6-0.8-1.3-1.2 0-0.3-0.6-1.3-0.2-0.4-0.7-0.5-2.3-0.9-1.5-1.2-2.8-1.4-1.2-1.3-2-4.4-1.7-2.6-0.7-2-0.5-0.9-1.3-0.9-2.2-1.3-1.1-1.1-0.6-0.3-0.3-0.1-0.6 0.1-0.5 0-0.6-0.2-0.7-0.4-0.4-0.2-0.2-0.3-0.1-0.2-0.2-0.8-0.1-0.3-0.2-0.4-3.3-3.3-0.4-0.6-0.8-1.8-0.3-0.4-0.3-0.7-0.2-0.4-1-1.2-0.4-0.7-0.1-1.5 0.1-0.6 0.3-1 0.1-0.3 0.2-0.3 0.2-0.2 0.2-0.1 0.5-0.2 0.1-0.1 0.1-0.1 0.6-0.9 0-0.3-0.1-0.3-0.2-0.1-0.5-0.2-0.2-0.1 0-0.2-0.1-0.4 0.1-0.2 0.2-0.2 0.6-0.2 0.2-0.2 0.2-0.2 1.1-1.8 0.1-0.1 2.5-3.8 0.2-0.3 0.3-0.2 0.8-0.9 0.4-0.8 0.2-0.5 0-0.3-0.1-0.5-0.1-0.3-0.1-0.9 0.3-4.4-0.7-5-0.2-1.7-0.9-2.6-0.2-0.8-0.1-0.9 0.1-0.8 0.3-1.3 1.2-3.6 0.2-0.4 0.9-0.7 0.4-0.5 0.4-0.9 0.1-0.7 0-0.8-0.4-2.7-0.2-0.6-0.7-1.3-1.1-1.5-0.6-2-0.9-4.4-1.9-3.6-0.7-1.7 1.4-0.9 0.4-0.8 0.1-0.9-0.1-1 0.2-0.9 0.7-1.1 0.7-0.9 0.1-0.8-1.1-0.7-0.6-1-0.4-1.8-0.1-1.8 0.4-1 0.9-0.8 0.5-1 0.4-2.1 3-6.2 0.5-2.2 0-2.9 0.2-0.8 0.5-0.5 0.6-0.2 0.5 0 0.7-0.2 0.7-0.4 0.2-0.2 0-0.3 0.4-3.6 0.4-1 0.5-0.9 0.3-0.2 0.6-0.3 0.4-0.3 1.2-1.1 0.3-1-0.7-3.1 0-0.7 0.1-0.2 0.2-0.1 0.6-0.1 0.4-0.3 0-0.5-0.2-0.9 0-1.8 0.1-1 0.3-1 0.9-1.9 0.1-0.2 0.6-2 0.4-2.1 0-0.6-0.3-0.9 0-0.3 0.5-1 0.8-0.2 1.1 0.1 2.1 0.6 0.6 0.5 0.4 0.7 0.6 3.2 0.5 0.9 0.7-0.3 0.7-0.7 0.9-0.2 0.8-0.3 0.4-1-0.1-1.3-0.6-0.7-0.8-0.6-0.5-0.9 0-1 0.5-0.7 1.8-1.3 0.6-0.9 1.5-2.9 0.7-0.8 2.4-1.9 4.9-6.6 3.6-3.2 0.9-0.5 1.9-0.6z" id="PEAMA" name="Amazonas">
  </path>
  <path  data-nombre="Cajamara" 
      data-equipos="8952"
      data-clientes="250"  d="M319.5 268l0.7 1.7 1.9 3.6 0.9 4.4 0.6 2 1.1 1.5 0.7 1.3 0.2 0.6 0.4 2.7 0 0.8-0.1 0.7-0.4 0.9-0.4 0.5-0.9 0.7-0.2 0.4-1.2 3.6-0.3 1.3-0.1 0.8 0.1 0.9 0.2 0.8 0.9 2.6 0.2 1.7 0.7 5-0.3 4.4 0.1 0.9 0.1 0.3 0.1 0.5 0 0.3-0.2 0.5-0.4 0.8-0.8 0.9-0.3 0.2-0.2 0.3-2.5 3.8-0.1 0.1-1.1 1.8-0.2 0.2-0.2 0.2-0.6 0.2-0.2 0.2-0.1 0.2 0.1 0.4 0 0.2 0.2 0.1 0.5 0.2 0.2 0.1 0.1 0.3 0 0.3-0.6 0.9-0.1 0.1-0.1 0.1-0.5 0.2-0.2 0.1-0.2 0.2-0.2 0.3-0.1 0.3-0.3 1-0.1 0.6 0.1 1.5 0.4 0.7 1 1.2 0.2 0.4 0.3 0.7 0.3 0.4 0.8 1.8 0.4 0.6 3.3 3.3 0.2 0.4 0.1 0.3 0.2 0.8 0.1 0.2 0.2 0.3 0.4 0.2 0.7 0.4 0.6 0.2 0.5 0 0.6-0.1 0.3 0.1 0.6 0.3 1.1 1.1 2.2 1.3 1.3 0.9 0.5 0.9 0.7 2 1.7 2.6 2 4.4 1.2 1.3 2.8 1.4 1.5 1.2 2.3 0.9 0.7 0.5 0.2 0.4 0.6 1.3 0 0.3 1.3 1.2 0.6 0.8 2 5.3 2.6 4.5 0.5 1 0.2 1 0 2.2-0.1 0.3-0.4 0.1-0.3 0.3-0.2 0.5 0.2 0.2 0.6 0.7 0.2 0.4-0.1 0.9-0.3 1.1-0.1 1 0.6 1.4 0.1 1.2 0.1 0.5 0.7 0.6 0.7 0.7 0.2 1 0.9 1.4 0.6 3.3 0.3 0.8 0.4 0.4 0.5 0.4 0.5 0.6 0.2 0.7 0.1 0.4 0.4 0.2 0.4 0.2 0.3 0.2 0.4 0.6 0 0.3-0.2 0.4 0 1.3 0.1 0.3 0.2 0.4 0.3 0.2 0.3 0 0.3 0.1 0.1 0.5 0 1.7 0.4 1.8 0.9 1 1.3 0.8 1.1 1 0.4 0.8 0.4 0.9-1.4-0.2-0.5 0-1.6 0.2-0.6 0-0.6 0.1-0.7 0.2-2.6 1.7-0.2 0.6 0.1 0.5 0.2 1.1 0.1 1.1 0 1.2-0.4 1.5-0.6 1.6-0.3 0.3-0.5 0.2-1.9 0-0.7 0-2.7 1.1-0.6 0.1-0.7-0.2-0.4-0.3-0.6-0.7-0.4-0.3-0.6 0-0.6 0.3-2.2 2.2-2 1.6-0.6 0.3-1.3 0.2-0.6 0.2-0.8 0.2-0.3-0.8-0.1-1.8-0.1-0.5-0.2-0.2-0.5-0.3-1-0.2-0.8-0.3-0.8-0.6-0.4-0.6-0.3-0.4-0.5-0.3-0.4-0.2-2.1 0.3-2.1-0.4-1.1-0.7-1.5-1.2-2.1-1.4-0.6-0.2-0.9-0.1-1.6 0-0.8 0.2-0.5 0.2-0.9 0.5-0.4 0-0.3-0.2-1.2-0.7-1.8-0.7-0.6 0-0.3 0.1-1.2 0.8-1.9 0.8-0.9 0.1-1.2-0.1-0.2 0-0.2 0.1-0.9 0.3-0.8 0.5-0.4 0.3-0.4 0.6-0.2 0.4-0.1 0.3-0.2 0.9-0.1 0.2-0.1 0.2-0.2 0.2-0.2 0.2-0.1 0.1-0.2 0.2-0.6 1.2-0.3 0-0.4-0.2-2.5-2-0.3-0.4 0-0.8 0.1-0.6 0.4-1.3 0.1-0.4 0-0.5-0.1-0.5-0.2-0.5-1.4-2.4-0.1-0.3-0.1-0.5-0.5-0.6-0.7-0.8-2.7-2.2-1.1-0.8-1.6-0.4-0.7-0.1-3.2-1.2-2-0.5-0.9-0.5-0.4-0.3-0.2-0.4-0.2-0.4 0.3-1.3 0.4-0.5 0.6-0.7 0.4-0.9 0.4-1 0.2-0.5 0-0.6-0.1-0.7-0.1-0.5-0.8-1.4 0.6-7.4 0.6-0.1 0.3-0.1 0.3-0.3 0.1-0.4 0.1-0.7-0.1-4 0.2-0.5 0.4-0.4 0.9-0.5 1.2-0.4 1.1-0.8 1.6-2.3 0.6-0.5 0.9-0.4 0.4-0.3 0.2-0.4 0.2-0.5 0-0.6 0-0.6-0.1-0.5-0.5-0.5-0.4-0.3-2.4-0.5-1.4-0.8-1.2 0-1.1 0.1-0.6-0.4-0.7-0.8-0.9-1.9-0.9-2.5-0.3-0.6-0.4-0.6-0.7-0.3-0.5-0.1-0.5 0.1-0.5 0-0.5-0.3-0.2-0.4-0.3-2.3 0.5-1.2 0.1-0.5 0-0.6-0.3-0.4-0.7-1.3-0.2-0.4 0-0.5 0.2-0.6 0.5-0.8 0.4-0.6 0.8-0.7 0.5-0.4 0.8-0.4 1.1-0.4 4-0.8 1.7-1.8 0.4-1.4 0-0.6-0.2-0.4-0.7-0.3-0.7-0.2-0.5-0.5-0.1-0.6 0-0.5 0.1-0.5 0.3-0.4 2.9-2.7 0.2-0.4 0.3-0.5 0.1-0.5 0-0.5-0.2-0.5-0.5-0.3-0.7-0.3-1.1-0.4-1-0.4-0.3-0.3-0.3-0.3-0.4-0.2-0.6 0-0.6 0.2-0.5 0.6-1 0.8-0.3-0.4 0-0.2-0.2-0.5-0.3-0.2-0.5-0.2-0.8 0.3-0.5 0.2-0.5 0.3-0.5 0-0.7-0.6 0.9-0.5 1.7-1.8 0.6-0.4 0.5-0.4 0.5-0.2 0.5-0.7-0.5-2-0.6-0.7-0.6-0.5-0.1-0.2-0.2-0.4-0.2-0.5 0-1.2-0.1-0.5-0.7-1.4-0.1-0.6-0.1-0.8 0.8-3.2 0.3-2.8 0-0.9 0-0.3-0.1-0.3-0.3-0.7-0.1-0.5 0-0.3 0-0.2 0.1-0.4 0.7-1.6 0.3-0.1 0.4-0.2 0.9 0.1 0.5 0.1 0.5 0.2 0.7 0 0.2-1-0.4-6.8-0.4-0.5-0.4-0.3-0.5-0.3-0.3-0.4-0.2-0.7 0.1-1.2 0-0.8-0.1-0.6-1.2-2.9 0.1-0.6 0.4-0.9 1.3-1.3 0.8-0.8 0.5-0.7 0.8-1.9 0.6-0.5 0.6-0.1 0.5-0.1 0.2-0.8 0.2-1.2 0.4-0.6 1.2-1.3 1.2 0 0.9 0.1 1.6 0.6 0.9 0.2 0.5 0 0.8-0.2 0.5 0.1 0.5 0.2 0.5 0.4 0.9 0.9 1.4-1.2 1.3-1.3 0.3-1.1 0.6-2.3 0.5-0.8 1-0.3 1.3 0 1.1-0.3 0.5-0.9-0.2-1.2-1.1-2.2-0.1-1.3 0.6-1.4 0.9-1.2 2.2-2.1 2.1-1.2 4.4-1.7 0.5-0.4z" id="PECAJ" name="Cajamarca">
  </path>
  <path  data-nombre="Tumbes" 
      data-equipos="8952"
      data-clientes="250"   d="M231.5 242.6l-6.1 5.4-0.9 1.2-0.4 0.3-0.4 0.2-0.2 0-0.6 0-4.7-1.8-1.6-0.4-1.4-0.1-3.9 0.3-2.4-0.7-0.9-0.5-3.2-3-0.1 0.1 0.8-1.6 2.6-4 1.5-1.6 1.9-1.4 2-1.1 0.7-0.7 0.3-1.1 0.1-1.1 0.4-1 0.8-1.7 1.3-1.7 1.8-1.4 7.7-4.6 1.4-1.4 2.1-3 0.3-1 0.4-0.2 0.5 0 0.4-0.3 0.8-0.3 3.3 0.1 1-0.2 1-0.4 0.8-0.7 0.3-0.8 0.1-0.6 0.7-1.1 0.2-0.5 0-0.5 0.4 0.2 0.7 0.4 1.9 0.5 0.7 0.5-0.1 0.9-0.3 1 0.1 1 0.3 0.3 0.8 0.3 0.3 0.4 0.1 0.4 0 0.5-0.1 0.9-0.3 1.4-0.1 0.3 0.4 0.4 0.4 0.1 0.5 0.2 0.1 0.5 0 0.5 0.3 1 0 0.5 0 0.5-0.3 0.9-0.1 0.5 0 0.5 0 0.3 0.3 0.9 0.1 0.5-0.2 0.4-0.2 0.3-0.1 0.4 0.2 1 1 1.6 0.4 1 0.1 0.4 0 0.9 0.1 0.4 0.5 0.5 0.4 0.3 0.3 0.3 0 0.5-0.8 0.9-3.8 1.7-0.7 0.9-0.7 1.1-0.8 1-1 0.5-1-0.2-2-1.1-1-0.3-1 0-1 0-0.9 0.3-0.7 0.5-0.6 0.8-0.5 1.2-0.4 1.2-0.1 0.1z" id="PETUM" name="Tumbes">
  </path>
  <path  data-nombre="Piura" 
      data-equipos="8952"
      data-clientes="250"  d="M293.9 286.6l-1.2 1.3-0.4 0.6-0.2 1.2-0.2 0.8-0.5 0.1-0.6 0.1-0.6 0.5-0.8 1.9-0.5 0.7-0.8 0.8-1.3 1.3-0.4 0.9-0.1 0.6 1.2 2.9 0.1 0.6 0 0.8-0.1 1.2 0.2 0.7 0.3 0.4 0.5 0.3 0.4 0.3 0.4 0.5 0.4 6.8-0.2 1-0.7 0-0.5-0.2-0.5-0.1-0.9-0.1-0.4 0.2-0.3 0.1-0.7 1.6-0.1 0.4 0 0.2 0 0.3 0.1 0.5 0.3 0.7 0.1 0.3 0 0.3 0 0.9-0.3 2.8-0.8 3.2 0.1 0.8 0.1 0.6 0.7 1.4 0.1 0.5 0 1.2 0.2 0.5 0.2 0.4 0.1 0.2 0.6 0.5 0.6 0.7 0.5 2-0.5 0.7-0.5 0.2-0.5 0.4-0.6 0.4-1.7 1.8-0.9 0.5-0.9-1.5-0.4-0.3-0.5-0.3-2-0.6-0.6-0.1-0.6 0.1-1 0.3-1.1 0.1-0.5 0-1-0.1-0.5-0.3-0.4-0.4-0.6-1.3-0.3-0.5-0.4-0.6-0.7-0.6-0.6-0.3-0.7-0.2-1.3-0.1-0.8-0.2-0.4-0.3-0.2-0.5-0.1-0.4 0-0.3 0-0.3 0.1-0.5 0.5-0.9 0.2-0.4 0.3-0.4 0.1-0.5-0.2-0.5-0.3-0.6-0.7-0.8-0.3-0.4-0.3-0.5-0.2-0.7-0.8-1-0.5-0.6-3-2.3-2.1-2-1.3-0.8-0.2 0-0.3 0.2-0.2 1.1 0.8 4.8 0.2 5.1-0.2 1.4-0.3 0.8-0.4 0.4-1.8 1.2-15.1 4.3-0.6 0.4-0.6 0.4-5.9 6.9-0.8 1.3-0.3 0.7-0.6 1.9-0.2 0.6-4.2 6.3-1.6 2-1.1 0.9-4.8-2.4-3-1.4-3.1-3-3.5-2.5-4.3-2.4-4.3-3.3-1.4-1.8-1-2.9 0.1-2 0-2.1-0.1-0.5 1-0.8 0.3-1 0.2-0.3 1.1-0.1 0.6-1.1 0-0.8 0.5-0.6 0.8 0.1 1 1.4 1.4 0.7 1.8 0.7 1.6 0.2 1.8-1.7 1.9-3.5 0.4-4.6-1.3-3.7-2.4-5.4-1.5-1.7-4.5-4.4-0.9-1-1.1-0.3-0.6 0.2-1.2-0.9-1-1.6-1.2-1.4-1-1.5 0.2-0.5 0.3-0.4 0.7-0.2 0.3-1-0.1-0.6-0.4-0.5 0-0.6 0.7-0.2-0.2-0.8-0.2-1.1 0.4-0.7 0.8 0.1 0.8-0.5 0.9 0.8 1.4-0.1 0.8-1.1 0.2-1.7-1.1-2.3-1.6-1.7-1.5-1.1-1.2-1.8-0.8-1.4-1.7-2.2-3.9-4.2-1.6-2.1 0.2-0.7 0.6-0.3 0.8-0.7-0.2-1-0.4-1.1 0.4-2.5 0-0.8-0.2-0.9-0.5-1-0.3-0.9 0.2-0.7 0.5-0.5 0.4-0.2 0.2-0.3 0.4-0.6 0.7-1.6 0-1.1-0.7-2.8 0.2-0.9 0.6-1.2 0.7-1.1 0.5-0.6 4.3-2.9 1.1-1.2 0.9-1.6 0.7-0.8 0.9-0.3 0.9-0.2 0.5-0.5 0.1-0.1 3.2 3 0.9 0.5 2.4 0.7 3.9-0.3 1.4 0.1 1.6 0.4 4.7 1.8 0.6 0 0.2 0 0.4-0.2 0.4-0.3 0.9-1.2 6.1-5.4 0 0.9 0.2 0.6 0.8 1.1 0.3 0.6 0 0.5-0.2 0.9 0 0.4 1 2.2 1.7 0.2 2.1-0.6 2.3-0.3-0.5 1.1-6.5 8.6-0.2 0.8 0.5 1 0.6 0.6 2.2 1.3 0.8 0.2 0.9 0 0.4 0 0.4-0.4 2-1.1 3.8-2.9 0.8-0.8 0.3-0.8 0.5-1.7 0.4-0.7 0.4-0.3 0.5-0.3 0.6-0.2 2-0.2 0.1-0.1 0.3 0.6 0.8 0.2 1 0.2 0.9 0.3 0.8 0.8 1.6 1.7 1 0.7 1.3 0.7 1.3 0.1 1.2 0.1 1.3 0.3 1.3 1.1 1 1.6 1.2 1.2 1.8 0.3 3.3-1 1.7-1 1.7-0.2 1.4 0.6 2.4 2.5 0.4 0.1 0.7 0.6 0.3 0.1 1.2 0 1 0.6 0.3 0.5-0.2 0.7-1.1 2 0 1 1.4 2.1 0.6 2.9 1.2 2.4 0.1 0.1 0.1 0.9 0.4 1 0.8 0.7 1 0.5 0.9 0.7 0.2 0.4 0.3 1 0.3 0.4 0.4 0.3 1 0.4 0.4 0.2 0.6 1 0.6 1 0.6 0.8 1.2 0.3 2.2-0.1z m-78.5 69.5l-0.3 0.3-0.3 0.9 0.3 0.6 0.4 0.5 0 0.6 0 0.8 0.1 0.9-0.6 0.1-0.6-0.1-0.2-0.4 0.2-0.5-0.2-0.8-0.4-0.4 0.4-0.4 0.1-0.7 0.6-1.7 0.5 0.3z" id="PEPIU" name="Piura">
  </path>
  <path   data-nombre="Ucayali" 
      data-equipos="8952"
      data-clientes="250"  d="M713.4 532.3l-0.1 0-6.4 4.8-1.6 1.5-0.7 0.9-0.7 2.2-0.2 1.2-0.5 6.8-0.4 1.7-0.6 1.6-1.5 2.4-4.7 5.6-1.2 0.9-0.8 0.5-3 2.5-2.6 1.6-2.7 2.3-2 1.2-0.9 0.4-4.2 1.3-21.7 11.2-0.5 0.2-1.1 0.2-6.8 0.3-1.2-0.3-0.4-0.2-2-1.5-0.9-0.4-1-0.3-1.8-0.1-0.9 0.4-0.5 0.5 0 0.5 0 0.5 2.7 3.4 0.4 0.8 0 0.7-0.2 0.7-3.6 6.5-0.5 1.2-0.3 1.1-0.2 1.4 0 1.2-0.8-0.3-0.5-0.1-0.6 0-1.3 0.4-0.5 0-0.6-0.3-0.9-0.6-0.4-0.1-0.4 0.2-3.4 1-1.7 0.7-0.9 0.7-1.9 1.6-0.4 0.3-1.2 0.5-0.5 0.3-0.4 0.3-0.3 0.4-0.5 0.3-0.5 0.2-1.7 0.3-2.1-0.4-0.6-0.3-0.5-0.2-1.2-0.9-0.4-0.2-0.5 0-0.5-0.2-0.2-0.5-0.2-0.5-0.2-0.5-0.5-0.2-0.9 0.1-0.5 0.3-0.5 0.3-0.4 0.2-0.6 0-0.5-0.1-1.6 0.2-0.7-0.3-1.1-1-0.5-0.2-1.9-0.6-1.3-1-0.2-0.5-0.1-1-0.3-0.4-0.6-0.7-0.3-0.4-0.2-0.5-0.1-0.6-0.2-0.5-0.3-0.5-0.4-0.3-0.6 0.2-0.4 0.3-1.7 2.5-0.4 0.3-0.4 0.3-1.6 0.6-1.9 0.5-6.3 0.9-3.5-0.1-1.3 0.2-2.2 0.8-1.4-0.3-1-0.7-1.1-1.3-0.7-1.5-1-3-0.1-0.6-0.1-0.4 1.1-6.6 0-1.8-0.1-0.4-1.6-3.5-1.8-3-1.8-2.3-0.7-0.7-0.8-0.6-0.5-0.2-0.5-0.2-2.3-0.5-1-0.3-1.1-0.5-0.7-0.1-0.6 0.5-1.9 3.4-3.7 5.2-0.7 0.6-0.6 0.5-0.7 0.4-0.8 0.2-1.4 0-2.2-0.3-0.8 0.1-0.7 0.2-1.5 0.3-0.8 0-0.7 0.1-2.6 0.7-0.9 0.5-0.8 0.2-1.1 0.1-2.8-0.2-0.9 0.2-0.7 0.3-0.7 0.5-1 0.5-2 0.5-1.4-0.1-0.9-0.3-0.7-0.5-1.3-2-0.3-0.6-0.5-1.8-0.9-4.7 2.1-1.2 2.6-2.2 2.8-2.9 1-0.9 2.1-2.1 0.8-0.6 2.2-1.3 2.2-0.7 0.5-0.3 0.3-0.5 0.1-0.6-0.3-0.6-0.5-0.6-0.5-0.5-0.7-0.4-3.5-1.3-0.6-0.3-0.2-0.2-0.1-0.3-0.7-2.3-0.9-2.1-0.4-0.7-1.5-3.9-0.2-0.7 0-0.8 0.7-7.2-0.1-1.3-0.6-1.4-2.4-4.2-0.7-2.3-0.1-1.7 0.2-1.9-0.3-1.7-1.9-5.1-1.1-2.4-0.5-0.8-1.2-1.4-6.4-9.5-0.9-1-0.7-1.2-0.7-1.9-0.2-0.6 0-0.4 0-0.4 0.5-2.2 1.4-4.1 0.5-2.3 0.1-1.2 0-0.6-0.6-2.2 0-0.6 0.1-0.6 0.2-0.5 0.2-0.5 0.8-1.3 1.2-2.7 0.4-1.7 0.2-4.9 0.2-0.5 0.2-0.5 0.3-0.3 0.5-0.3 2.7-1.4 0.9-0.7 0.3-0.5 0.2-0.6 0-0.4-0.1-0.6-0.3-1-0.3-1.1-0.2-0.4-0.3-0.4-0.3-0.4-0.4-0.3-0.8-0.5-0.5-0.2-0.6-0.1-4.5-0.4-1.1 0.2-1.4 0.4-3.5 1.4-0.8 0.5-4.2 3.6-0.5 0.3-2.5 1.2-1.2 0.8-2.4 2.4-1.6 2.1-3 4.5-1.2 1.5-0.4 0.6-0.3 0.6-0.5 1.5-0.3 0.4-1.1 1.6-0.5 1-0.7 1.9-0.4 0.5-1.5 1.5-1 1.7-0.7 0.5-1 0.6-2.2 0.8-1.1 0.3-1.4 0.2-0.4 0.3-5.9 4.9-0.5 0.3-1.2 0.6-1.2 0.2-1.6 0-0.7-0.5-0.6-0.7-2.2-4.5-0.4-0.4-0.7-0.7-1.3-0.8-0.3-0.4-0.4-0.6-0.3-0.8-0.3-1.7-0.1-0.8 0-0.8 0.1-0.6 0.1-0.6-0.1-0.6-0.2-1-0.1-0.5-1-1.9-0.5-0.6-0.5-0.5-0.5-0.2-0.4-0.2-0.4-0.1-0.3-0.2-0.2-0.3-0.1-0.2-0.1-0.4-0.8-8.7-0.2-0.8-0.3-0.9-2.2-3.2-0.7-1.5-0.2-1.9 4.9-2.3 2-1.7 1.5-1.6 1.5-1.4 3.4-2.2 0.9-0.8 0.7-0.9 0.5-0.8 0.8-0.8 0.8-0.4 1.1 0 0.8 0.2 0.6 0.3 0.6 0.5 3.6 3 0.8 0.4 1 0.4 1.1 0 0.6-0.4 0.2-0.7-0.2-0.8-0.3-0.6-2.6-3-0.8-1.3-0.3-0.6-0.5-1.9 0-1 0.1-0.9 0.5-1 0.7-0.6 0.9-0.6 0.7-0.3 0.6-0.1 0.6 0.1 1.2-0.1 0.4-0.4 0.4-0.6 0.3-0.6 0.1-0.8 0.2-0.8 0.5-1 0.6-0.6 0.5 0 0.6 0.2 0.8 0.4 6.1 0 2.4-0.5 1.2-0.5 1-0.5 2.8-2 1.6-0.8 4-1.3 11.1-1.9 1.2-0.4 3.1-1.7 0.9-0.6 0.7-0.6 0.5-0.7 0.2-0.7 0.2-0.8 0.1-4.4-0.7-4.5 0.2-3.1-0.1-1.7-1.2-6.7-0.4-1.3-0.4-0.7-0.2-0.8 0-0.9 0.4-1.1 0.5-0.6 0.7-0.3 0.8-0.1 1.9 0.3 4.7 2.9 2.2 0.7 3.4 0.1 1.3 0.1 2.5 0.7 7.9 3 2.3 1.1 0.6 0.3 0.6 0.5 0.5 0.6 0.1 0-1.7 0.7 0.5 0.9 1.9 1.1 6.4 6.7 1.3 0.9 1.6 0.7 1.8 0.6 1.5 1.2 0.4 1.9-0.5 1.9-1.6 1-1.6-0.6-0.7 0-0.1 0.9 0.5 2.3 0.3 0.7 1.5 1.2 2.1 0.8 1.8 1 0.8 1.6 0.4 1.1 1.6 2.1 0.5 1.2 0 0.9-0.3 1.9 0.2 0.9 0.6 1.2 1.4 1.8 0.5 1.3 0.2 2.1 0.3 0.9 0.7 0.6 3.9 2.2 0.5 0.5 0.8 1 0.5 0.4 0.5 0.2 1 0.2 0.4 0.1 0.7 0.7 0.4 0.9 0 1-0.4 2.2 0 1 0.3 0.8 2.1 2.7 0.9 0.9 1 0.5 2.8 0.6 1 0.5 0.8 0.8 0.6 1 0.8 2.1 3.8 5.5 0.7 0.6 1.8 1.2 0.6 0.7 1.4 2 0.3 0.8 0.5 4.2-0.2 1.4-0.4 1-0.5 0.6-2.2 1.8-0.1 1.3-0.3 0.6-0.6 0.4-0.8 0.2-0.7 0.1-0.6 0.4-0.5 0.8-0.8 1.6-1.1 1.5-2.6 2.6-1.1 1.6 19.6 0.1 6 1.2 0.2 0.2 0.4 0.3 0.3 0.1 0.2-0.1 0.4-0.2 0.2-0.1 1 0.2 1.9 0.6 2.1 1.1 0.9 0.2 2.2 0.3 2.9-0.2 1 0.2 1 0.5 1.3 1.2 0.9 0.6 0.5 0 0.6-0.1 0.5 0.1 0.3 0.4 0 0.5-0.1 1.4 0.2 1 0.4 0.9 1.4 1.5 0.3 0.9-0.2 1-0.6 1.8 0.6 1.9 3.4 2.2 1 2 0.2 0.5 0.4 1 0.1 0.5-0.1 0.7-0.8 0.9-0.3 0.5 0 1 0.1 0.9-0.1 0.8-0.5 1.1 2.6 0 8.7 0 8.7 0 8.7 0 8.7 0 1.8 0 0.9-0.2 0.5-0.4 0.2-0.3 0.2-0.3 0.7-0.1 0.6 0.2 0.3 0.3 0.4 0.2 0.7 0 0.9-0.5 1.8-1.4 2.3-0.8 0.7-0.9 0.4-1.2 0.7-1.1 0.8-0.6 3.2-1.4 3.1-0.8 0.9-0.7 0.3-0.6 0.6-1.3 0.4-0.5 0.6-0.5 1.3-0.8 0.5-0.5 1.4-2 0.8-0.9 2.5-1.3 0.9-0.8 1.9-1.9 1-0.8 3.2-1.8 0.9-0.9 1.7-2.1 1-0.9 1-0.4 1-0.3 2-0.2 0.1 0.7-0.1 0.1-0.5 0.9-0.1 0.8-0.3 0.6-0.9 0.4 0.1 0.2 0.1 0.4 0.1 0.1-0.6 0.2-0.4 0.5-0.1 0.6 0.7 1.2-0.5 0.1-0.6-0.1-0.3-0.1-1.3 0-0.3 0.1 0.5 0.9 0.4 1.6 0.3 0.9 0.5 0.8 1.5 1.1 0.5 0.7 0.4 1.1-0.1 0.9-0.4 0.8-0.6 0.9-0.1 0.3-0.2 0.6-0.2 0.3-0.3 0-0.5-0.3-0.2 0-0.5 0.3-0.5 0.3-0.4 0.4-0.3 0.6-0.4 2 0 2.9 0 2.2z" id="PEUCA" name="Ucayali">
  </path>
  <path data-nombre="Puno" 
      data-equipos="8952"
      data-clientes="250"   d="M794.6 685.5l0.1 0.7-0.4 6 0.1 2 0.7 3.9-0.5 9.8 0.1 1.2-0.3 1.2-0.4 1.2-0.4 0.6-1 1.2-0.4 0.5-0.1 0.7 0.1 0.7 0 0.6-0.5 0.5-0.5 0.1-1.5-0.3-0.7 0.1-0.6 1.1 1 1.5 2.6 2.1 0.5 0.8 0 0.6-0.2 0.6-0.2 0.8 0.1 0.6 0.6 2 0.9 1.3 0.1 1.7 0.1 1.8 0.2 1.6 0.7 0.9 2.6 1.8 0.5 0.7 0.3 0.8 0.3 1.7 1.2 3.4 0.2 1.7-0.9 1-3.3 0.5-1.6 0.4-1.3 0.9-0.3 0.8 0 1 0 2 0.4 0.9 0.7 1 0.2 1-1 0.9-3.2 1.8-0.9 0.7-1.9 2.2-0.4 0.2-0.8 0.2-0.3 0.2-0.2 0.9 0.2 2.3-0.3 0.6-1.1-0.1-1.1-0.2-0.9 0.1-0.7 1-0.3 6.5-0.6 1.4-0.8 0.5-2.7 0.7-1.1 0.7-0.5 0.7 0 0.8 0.2 4.2-0.1 0.4-0.8 1.9-0.2 0.9 0.3 0.9 1 1 0.8 0.7 2.8 4.4 0.8 0.8 2.9 2.2 0.8 0.7 1.2 1.8 1.2 1.1-0.1 0.9-0.8 0.6-1.1 0-1 0-0.6 2-1.7 0.5-0.9 0.9-0.8 1-0.3 0.9 0.6 1.5 0 0.4-0.4 0.2-1.3 0.5-0.5 0.3-0.6 0.9-0.3 1-0.1 1-0.3 1-3.1 4.8-0.5 1.5 0.3 1.5 0.6 1.5 2.1 5.2 2.1 5.3 2 5.2 2.1 5.2 1.1 2.8 1.7 2.1 0.9 0.8 1.1 0.7 1.1 0.4 1.3 0 0.5-0.3 1-0.7 0.5-0.2 0.5 0.1 1.6 0.5 1.4-0.5 1.1 0.7 2 2.2 2.5 1 1.1 0.8 0.5 1.4-1.1 1.7-5.4 2.2-1.7 0.8-1.2 1.6-0.5 0.9-0.1 1 0.1 3-0.1 1.6 0.2 0.8 1.3 1.9-0.6 0.8-0.8 1-0.8 0.6-2.9 1.5-0.9 0.2-1.7 0.2-0.8 0.5-0.4 0.7-1 2.8-0.6 1.1-5 5.3-1.3 2.8-0.6 0.7-2.1 1.2-0.3 0.4-0.1 0.5 0.1 0.3 0.4 0.1 0.2 0.3-0.2 0.8-1 1.3-1.3 0.5-1.4 0.2-1.4 0.6-1.5 1-2.6 2.4-0.3 0.1-0.9 0.1-0.2 0.1-0.5 1.1-0.8 2.9-0.8 1.3 0.1 0-0.2 0-0.5 0.2-1.7 0.3-0.3 0.1-0.3-0.1-0.4-0.1-0.3-0.3-0.9-1-0.1-0.3-0.5-1-0.2-0.2-0.3-0.2-0.5 0-0.3 0-0.2 0.1-0.4 0.1-0.7 0.3-0.3 0-0.3 0-0.4-0.2-1.5-1-0.5-0.3-0.4-0.2-0.2 0-0.4-0.1-0.3-0.1-1-0.8-1.7-1.6-1.1-0.8-0.2-0.1-0.1-0.1-0.1 0-0.1 0-0.4-0.1-0.4-0.2-1.1-1.6-2.7-5.1-3.1-4.7-1-2.3-0.1-0.7-0.1-0.7 0-0.4 0.1-1.4 0.2-0.4 0.4-0.5 0.6-0.3 0.5-0.2 1.5-0.3 0.5-0.2 0.5-0.3 1.3-1.3 1.9-1.6 0.4-0.9-1.1-1.7-3.1-0.5-0.5-0.1-0.7-0.5-0.9-0.7-2.4-2.6-0.9-1.3-0.7-1.2-0.3-0.5-0.5-0.4-2.1-1.2-0.7-0.8-0.6-1.6-0.8-3.1-0.8-1.8 0-0.5 0-1 0.3-1.1 0.7-1.8 0-0.5-0.2-0.7-0.4-0.6-1.9-1.1-0.6-0.7-0.2-1 0.1-1.6 0-1.6-0.2-0.8-0.3-0.6-0.5-0.6-0.7-0.3-1 0-0.7 0.1-1.9-0.2-3.1-1.9-1.5 0.5-0.6 0.4-0.7 0.4-0.6 0.5-1.5 0.5-0.9 0-1.3-0.3-1.2-0.5-2.8-2-0.1-0.1-0.4-0.3-1.1-0.4-1.1 0.1 0.5-1.6 0.2-1.2-0.3-1.2-2-1.5-0.5-0.9-0.8-1.8-0.4-0.6-0.4-0.5-0.3-0.4-0.2-0.5 0-0.6 0-0.4 0.2-0.4 1.3-2.2 0.1-0.5 0.1-0.6-0.2-0.7-0.4-0.9-0.4-0.5-2-1.6-0.7-0.7-1.6-2-0.2-0.5-0.1-0.7 0.2-1.7 0.1-0.6 0-0.4 0-0.5-0.3-0.6-0.4-0.4-0.3-0.7-0.1-0.8 0.4-3.3-0.2-1.6 0.6-0.5 0.3-0.1 0.8-0.3 0.3-0.2 0.3-0.5 0.2-0.7 0.1-4-0.3-1.7-0.5-1.3-0.4-0.9-0.3-0.4-0.2-0.6-0.1-0.7 0.2-1.1 0.2-0.6 0.2-0.8 0-0.2 0-0.3-0.8-1 0.1-1.5 0.4-1 1.1-1.8 0-0.7-0.1-0.9-0.5-1.7-0.2-0.9 0-0.7 0.5-2.3-0.1-0.6-0.4-0.6-1-0.6-0.7 0-0.6 0-0.5 0-0.5-0.2-0.4-0.4-0.9-1-1.1-1.7-0.3-0.4-0.1-0.5 0-0.5 0.3-0.7 0.9-0.2 1.3-0.1 0.5-0.1 0.5-0.4 0.5-0.4 0.6-0.7 0.9-0.9 0.3-0.2 0.6-0.5 0.2-0.3 0.1-0.5 0-0.5-0.5-1-0.2-0.8 0.3-1.5 0.8-2.3 0.5-0.4 0.4-0.3 2.6 0.1 0.4-0.3 0.3-0.3 0.2-0.5 1.6-6.1 0.8-1.9 0.4-1.2 1.1-6.6 0-1.2-0.5-1.1-0.6-0.5-0.5-0.7-0.4-0.7 1-4.2 0.2-2.6 0.4-2.5 0.8-0.5 3.9-0.6 1.3-0.4 0.7-0.5 0.8-1.4 4.6-11 1.4-2.6 0.8-1 1-1.2 1.3-1.2 2.9-3 0.8-1.1 1.2-2.9 0.4-1.3 0-0.6 0-0.6-0.8-3 0.2-1.8 1.3-5.6 0.8-0.6 0.8 0.1 32.9 16.4 1.3 0.3 0.8-0.2 30.8-15.6z" id="PEPUN" name="Puno">
  </path>
  <path  data-nombre="Moquegua" 
      data-equipos="8952"
      data-clientes="250"  d="M735.8 879.4l-1 2.7-1.3 0.9-0.7-0.1-0.8-0.1-0.6-0.3-0.5-0.5-0.5-0.7-1.2-2.9-0.4-0.6-0.5-0.4-1.1-0.5-1-0.2-0.9 0-0.7 0.2-1.2 0.7-1.1 1.3-0.4 0.5-0.2 0.6-0.1 0.7-0.2 0.7-0.5 1.4-0.3 0.8-0.1 1 0.2 1.3 0.1 0.1 0 0.1 0.4 1 0.2 0.7-0.1 0.6 0 0.7-0.5 0.8-1.5 2-3.9 4.5-2.4 1.1-1.1 0.3-0.9 0.5-0.7 0.5-0.3 0.4-0.6 0.9-0.5 1.1-0.8 1.3-2.1 2.7-0.2 0.5-0.5 2.3-0.2 0.7-0.3 0.8-0.6 1-0.4 0.6-0.3 0.4-2 1.8-0.5 0.7-0.4 0.6-0.9 2.4-0.3 0.5-0.3 0.4-0.9 0.4-0.6 0.2-4.3 1.8-1.9 1.2-1.8 1.4-0.5 0.5-0.3 0.3-0.3 0.5-0.8 1.5-0.6 0.9-1.3-1.6-0.8-0.5-2.3-1.1-1.8-1.3-1.1-0.5-1-0.2-1.6 0.2-0.2 0.1-0.1-0.5 0.3-0.6 0.8-1 0.2-1.2-0.2-1-0.3-1-0.4-5.2-0.2-1-0.7-2-0.2-1.7-0.2-0.2-0.3-0.1-0.4-0.3-1.3-1.7-1.8-1.2-0.1-0.2-0.2-0.5 1.8-1.4 0.8-0.8 0.6-0.9 0.4-1.5 0.5-1 1.3-1.7 0.2-0.4 0.2-0.5 1.1-4.5 0.3-0.5 0.2-0.4 0.2-0.4-0.3-0.6-0.4-0.4-3-2.3-0.7-1.7-0.9-1.9-0.3-1.1-0.2-1.1 0.1-0.5 0.1-0.6 0.5-0.9 0.4-0.6 2.5-2.3 1.1-0.6 1.6-0.5 0.5-0.2 0.3-0.5 0.1-0.6 0.1-1.5 0-0.6-0.4-2.3 0.1-0.6 0.4-0.5 1.5-1.6 2.3-3.5 0.8-0.8 0.6-0.4 2.4-1.1 0.5-0.1 1.7 0 0.6-0.1 1-0.3 0.5-0.1 0.5 0.1 0.4 0.3 0.6 0.7 0.4 0.3 0.4 0 0.3 0 1.7-0.8 0.4-0.3 0.3-0.6 0-1-0.1-0.6-0.4-1.7 0-0.4 0-0.5 0.2-0.6 0.4-0.6 0.3-0.5 2.2-2.1 1.2-1.6 0.6-2.9 0.6-11.1 1.1-0.1 1.1 0.4 0.4 0.3 0.1 0.1 2.8 2 1.2 0.5 1.3 0.3 0.9 0 1.5-0.5 0.6-0.5 0.7-0.4 0.6-0.4 1.5-0.5 3.1 1.9 1.9 0.2 0.7-0.1 1 0 0.7 0.3 0.5 0.6 0.3 0.6 0.2 0.8 0 1.6-0.1 1.6 0.2 1 0.6 0.7 1.9 1.1 0.4 0.6 0.2 0.7 0 0.5-0.7 1.8-0.3 1.1 0 1 0 0.5 0.8 1.8 0.8 3.1 0.6 1.6 0.7 0.8 2.1 1.2 0.5 0.4 0.3 0.5 0.7 1.2 0.9 1.3 2.4 2.6 0.9 0.7 0.7 0.5 0.5 0.1 3.1 0.5 1.1 1.7-0.4 0.9-1.9 1.6-1.3 1.3-0.5 0.3-0.5 0.2-1.5 0.3-0.5 0.2-0.6 0.3-0.4 0.5-0.2 0.4-0.1 1.4 0 0.4 0.1 0.7 0.1 0.7z" id="PEMOQ" name="Moquegua">
  </path>
  <path data-nombre="Arequipa" 
      data-equipos="8952"
      data-clientes="250"   d="M694.3 801.4l0.2 1.6-0.4 3.3 0.1 0.8 0.3 0.7 0.4 0.4 0.3 0.6 0 0.5 0 0.4-0.1 0.6-0.2 1.7 0.1 0.7 0.2 0.5 1.6 2 0.7 0.7 2 1.6 0.4 0.5 0.4 0.9 0.2 0.7-0.1 0.6-0.1 0.5-1.3 2.2-0.2 0.4 0 0.4 0 0.6 0.2 0.5 0.3 0.4 0.4 0.5 0.4 0.6 0.8 1.8 0.5 0.9 2 1.5 0.3 1.2-0.2 1.2-0.5 1.6-0.6 11.1-0.6 2.9-1.2 1.6-2.2 2.1-0.3 0.5-0.4 0.6-0.2 0.6 0 0.5 0 0.4 0.4 1.7 0.1 0.6 0 1-0.3 0.6-0.4 0.3-1.7 0.8-0.3 0-0.4 0-0.4-0.3-0.6-0.7-0.4-0.3-0.5-0.1-0.5 0.1-1 0.3-0.6 0.1-1.7 0-0.5 0.1-2.4 1.1-0.6 0.4-0.8 0.8-2.3 3.5-1.5 1.6-0.4 0.5-0.1 0.6 0.4 2.3 0 0.6-0.1 1.5-0.1 0.6-0.3 0.5-0.5 0.2-1.6 0.5-1.1 0.6-2.5 2.3-0.4 0.6-0.5 0.9-0.1 0.6-0.1 0.5 0.2 1.1 0.3 1.1 0.9 1.9 0.7 1.7 3 2.3 0.4 0.4 0.3 0.6-0.2 0.4-0.2 0.4-0.3 0.5-1.1 4.5-0.2 0.5-0.2 0.4-1.3 1.7-0.5 1-0.4 1.5-0.6 0.9-0.8 0.8-1.8 1.4-0.5-1.1-0.8-0.6-0.8-0.3-1.9-0.3-1.1-0.4-0.5-0.3-0.8-0.8-0.9-0.5-0.2-0.1-8.1-2.1-1.8-0.9-1.6-1.3-2.3-2.7-1.2-1.1-2.6-1.6-1.1-0.5-1.1-0.2-3-0.3-0.4-0.2-0.3-0.5 0.1-1.1-0.1-0.5-0.7-0.7-2-1.1-0.4-0.5-0.5-0.8-1.2-0.6-2.3-0.5-1.2-0.8-0.2-0.9 0-0.9-0.4-1-2.8-3.2-1.1-0.8-0.5-0.2-0.5 0-0.4-0.1-0.4-0.3-0.5-0.7-0.4-0.3-0.4-0.1-0.3-0.2-1.1-0.7-0.5-0.3-2-0.3-2.9-1.2-5.1 0-4.3-1.6-5.2-3.8-8.4-3-1.7-1.8-2.1-1.1-1.8-1.3-0.9-0.3-1.9 0.1-0.9-0.3-0.7-0.5-0.7-0.2-0.8 0.3-0.4-0.7-0.7-2.1-0.4-0.5-0.5-0.2-1.4-0.3-2.7-1.4-3-0.7-5.7-2-3.8-0.6-1.2 0.9 0.1-1.3-0.9-0.7-0.5-0.5-0.3-0.3-1.8-0.6-3.5-1.6-1.4-0.9-3.1-2.2-3.4-2.5-1.4-1.2 0-0.6 0.3-0.6-0.4-0.8-0.5-0.7-1.5-0.7-4.2-2.3-0.7-0.2-2.1-0.3-0.8-0.5-0.7-0.8-0.1-0.5-0.6-0.4-1.2-0.4-1.9 0.4-1.7-0.4-1.7-0.6-2.1-1.5-0.3-0.3-0.1-1-0.1-0.5-0.3-0.4 0-0.7-0.3-0.7-1.2-0.5-2.4-0.7-7-3.1-3.4-1.9-4.7-2-1.1-1.4-5.3-2.8-1.4-1.1-0.6-0.2-0.8 0.1-0.3 0.2-0.3-0.1-0.8-0.6-0.6-0.6 2.8-4.3 0.3-0.7 0.3-1 0.4-0.9 1.8-3.2 1.2-1 10.3-6.6 0.1 0.7 0.1 0.4 0.2 0.5 0.3 0.4 0.5 0.4 1.3 0.4 3.7 0.7 3.7 1.2 1.8 0.3 0.5 0.2 0.4 0.3 0.1 0.4-0.1 0.5-0.2 0.5 0.1 0.8 0.4 1 1.2 1.7 0.5 1 0.3 0.9 0.1 0.6 0.3 0.5 0.5 0.4 1.9 0.7 1 0.6 0 1.1 0.1 0.5 0.2 0.4 0.3 0.5 1.6 1.8 0.4 0.3 0.5 0.2 0.5 0.3 1 0.3 1 0.1 0.5 0 0.6-0.2 1.2-0.4 1.2-0.7 1.2-0.9 0.4-0.1 0.5 0 0.4 0.4 0.1 0.5 0.1 1.4 0.1 0.2 0 0.1 0.3 0.4 0.3 0.3 0.2 0.4 0.1 0.5-0.4 2.2 0 0.5 0.1 0.5 0.2 0.5 0.5 0.2 0.8-0.1 3.7-2 0.5-0.4 0.3-0.5 0.6-1.5 2-3 0.3-0.4 0.7-0.3 0.9-0.2 5.1 0.1 5.1-0.8 2.2-0.1 2.1-0.5 5.7-2.6 1.5 0.5 0.4 0.3 1 0.3 3.6 0.4 2 0 0-0.5-0.3-1-0.1-2.1 0.2-1.5 0.3-0.4 0.5-0.2 0.5-0.1 1.1 0.1 1.1 0.3 1.4 0.5 0.4 0 0.4 0 0.4-0.3 0.3-0.3 0.6-0.8 1.5-3.1 0.4-0.6 2.9-2.7 0.6-0.8 0.5-2 0.2-2.5 0.3-2 0.3-0.7 0.1-0.6-0.1-0.6-0.3-0.7-0.7-0.9-0.4-1.1 0.4-2.3 0.3-0.5 0.5-0.8 0.3-0.3 0.3-0.3 0.5-0.3 0.9-0.4 0.6-0.1 0.6-0.1 2.2 0.3 0.6 0 0.6 0 1.1-0.4 0.5-0.2 0.3-0.3 0-0.4-0.4-1.2-0.2-1.7 1.3-1.8 1.3-1.2 0.9-0.5 0.7-0.1 1 0.4 0.5 0.2 0.4 0.2 0.7 0.3 0.8 0.1 1.5-0.1 0.9 0.1 0.7 0.2 0.5 0.2 0.6 0.3 0.9 0.1 0.9-0.2 4.1-1.1-0.1 0.9-0.2 1 0 0.4 0.1 0.5 0.3 0.5 3 3.8 1.2 0.7 3.1 0.8 3.2-0.8 1.4-0.2 1.2-0.2 1-0.4 1.2-0.6 0.5-0.1 0.7 0.1 0.4 0.3 0.4 0.3 0.2 0.5 0.6 1.5 0.2 0.5 0.3 0.4 0.3 0.4 0.4 0.2 0.5 0.1 0.5-0.2 1.2-1.9 0.1-0.4 0-0.5 0.2-0.5 0.5-1.1 0.2-0.5 0-1-0.1-0.5-0.1-0.5-0.2-0.5-0.6-0.8-0.1-0.5 0-0.5 0.2-0.5 0.2-0.4 0.3-0.4 0.5-0.1 0.5 0 0.4 0.1 0.2 0.2 0.4 0.2 1 1.1 2.3 3.3 1 1.4 0.6 1.6 0.3 0.4 0.3 0.4 0.5 0.4 0.6 0.3 1 0.3 0.7 0.1 0.5 0.1 0.2 0.4-0.1 0.5-0.2 0.4-0.3 0.4-0.3 0.3-0.9 0.5-0.4 0.3-0.3 0.4 0 0.5 0.4 2.7 0.1 0.4-0.1 0.4-0.1 0.4-0.5 0.9-0.1 0.5 0.6 0.6 1.3 0.6 6.1 1.6 0.5 0.2 0.6 0.4 0.5 0.1 0.4-0.1 1.3-1 0.8-0.4 0.5-0.1 1.1-0.2 0.6 0 1.1 0.1 0.6 0 0.6-0.1 0.5-0.2 0.3-0.4 0.1-0.4-0.1-0.5-0.2-0.4-0.1-0.5 0-0.4 0.4-0.2 0.6 0.1 1.5 1.2 0.8 0.2 1.1-0.2 0.7 0.2 0.7 0.5 2.8 2.5 0.5 0.3 0.7 0.2 0.6 0 0.4-0.2 1.4-1.5 0.4-0.3 0.4-0.2 0.5-0.1 0.5 0 0.5 0.1 0.5 0.2 0.4 0.3 0.4 0.4 0.3 0.6 0.4 0.9 0.1 0.5 0 0.7-0.2 1.1-0.2 2.2 0.2 0.4 0.3 0.5 0.7 0.3 1.4 0.5 0.8 0.4 1.3 1.1 0.8 0.8 1 1.5 0.9 0.8z" id="PEARE" name="Arequipa">
  </path>
  <path data-nombre="Ica" 
      data-equipos="8952"
      data-clientes="250"  d="M513.9 788.9l-10.3 6.6-1.2 1-1.8 3.2-0.4 0.9-0.3 1-0.3 0.7-2.8 4.3-0.9-1-0.5-0.4-1-0.3-1-0.2-0.7-0.3-0.3-0.8-0.3-0.2-0.8-0.2-0.1-0.4 0.1-0.2 0.7-0.3 0.9-0.3 0.2-0.7-0.7-1.1-1.4-0.9-2-0.8-1.3-1.3 0.9 0 0.6-0.3 0.2-0.5-0.1-0.6-0.2-0.5-0.3-0.4-2.4-2.3-1-0.4-2.5-0.4-0.7-0.5-0.5-0.9-0.4-1.2-2.3-3.3-0.3-1-0.4-0.5-1.8-1.2-0.5-0.5-0.1-0.4 0.1-1.6-0.2-0.3-2.1-1.7-4.1-2-1.3-0.7-1-0.5-1.2-0.8-2.1-1.8-2.4-1.2-0.2-0.2-0.4-0.3-0.5-0.2-0.4-0.1-0.5-0.2-0.4-0.5-0.3-0.5-0.3-0.5-0.4-0.4-0.3-0.2-2.1-1.1-0.7-0.7 0.2-1.1-0.2-1.2-0.1-1.2-0.6-1.1-0.9-1.2-0.5-0.3-0.1-0.6 0.2-0.4 0.4-0.8-0.2-0.4-0.6-1.2-1.1-0.6-1.7-1-0.6-0.6-0.9-1.3-0.7-0.7-0.5-0.2-1.2-0.1-0.4-0.2-0.4-0.4-0.5-1.6 1.4-0.2 0.4-0.4 0-0.5-0.3-0.7-0.5-0.9-0.3-0.5-0.4-1.1-0.5-0.9-0.8-0.4-0.8-0.3-0.4-0.7-0.3-0.8-0.3-0.6-0.7-0.4-1.7-0.7 0 1.1-1 1.6-0.9-1.7 0.4-1.3-0.1-1.9-0.4-1.1 0.5-0.4 0-0.8 0.7-0.4-0.3-0.5 0.1-0.5 0.1-0.5-0.5-0.6-0.3-0.8 0.6-0.2 0.1-1.3-0.3-0.9-0.9-0.5-0.1-0.6 0-0.4 0.2-0.4 0.1-0.3-0.3-0.3-0.5-0.1-0.3 0.2-0.2 0.8-0.3 0.4-0.6-0.2-0.9 0.1-0.9-0.5-1 0 0-1.3 0.2-0.7 0.6-1.7 0.5-0.7-0.2-0.6 0.5-0.4 0.8 0.2 0.9-0.7 0.9 0 0.6 0.1 0.3 0.6-0.5 0.7-0.1 0.7 0.4 0.4 0.6 0.3 1 0.7 0.3-0.5 0.1-1.1 0.2-1 0.8-2.3 0.4-1.5 0-1 0.1-1.4 0.6-1.6 0.6-1.6 0.8-4.1-0.3-3.8-0.4-1.8-1.3-3.6-1.3-1.8 2.3-1.7 0.8-1.1 1.8-3.5 0.4-0.5 6.9-5.7 0.5-0.6 0.4-0.5 0.6-1.7 0.4-0.6 0.4-0.2 0.3 0 0.2 0 0 0.1 0.2 0.1 2.4 1.1 1.1 0.3 3.3-0.1 4.7-0.7 0.6-0.2 1.4-0.9 1.3-0.6 0.3 0.5 0.1 0.3 0.1 0.1-0.1 0.4-0.2 0.6-0.5 1.1-0.5 0.6-0.5 0.4-1.9 0.9-0.4 0.3-0.2 0.5-0.1 0.7 0.7 2.8 0 0.7 0 0.8-0.2 1.1-0.4 0.6-0.4 0.4-0.9 0.4-0.4 0.3-0.4 0.4-0.1 0.5-0.2 1.2-0.2 0.6-0.2 0.5-0.8 1.2-0.5 0.9-0.2 0.5-0.1 0.6 0.1 0.5 0.2 0.4 0.3 0.4 1.4 0.3 3.3-0.2 1 0 1 0.1 1.6 0.4 2.5 1.1 1.1 0.2 1.8 0.1 0.5 0.2 0.5 0.3 0.3 0.6-1.5 3.5-0.5 0.9-0.7 0.7-0.5 0.8 0.9 2.3 0.5 0.9 0.2 0.6 0 0.7-1.5 2.9-0.7 0.9-0.1 0.6 0.1 0.4 0.1 0.5 0.8 1.3 0.1 0.5-0.1 0.5-0.5 0.8-0.1 0.5 0.1 0.4 0.5 1 0.4 0.5 0.6 0.5 2.8 1.2 0.6 0.3 0.8 0.7 0.7 0.4 1 0.3 0.6 0.2 1.9 0.1 0.4 0.2 0.7 0.4 0.9 0.9 2.6 1.8 2.2 2.4 1.4 0.3 1.4 0.1 0.7 0.1 0.6 0.2 0.9 0.5 1 0.9 1 1.3-0.5 0.8-0.3 0.5-0.1 0.8 0 0.9 0.9 2 0.2 0.8-0.3 1-1.8 3.6-0.5 0.7-0.4 0.8-0.4 0.9 0.4 0.6 0.4 0.4 2.1 1.4 0.3 0.3 0.3 0.4 0.5 0.9 0.1 0.7 0 0.5-1 2 0.6 2.1 0.1 1.3 0.2 0.4 0.5 0.1 2.5-0.5 0.5-0.2 0.4-0.2 0.3-0.4 1.2-1.6 0.4-0.3 0.5-0.1 0.5 0 0.5 0.2 0.5 0.4 0.4 0.5 0.6 0.8 0.4 0.4 0.4 0.4 0.4 0.4 0.2 0.5-0.4 1.3 0.1 0.6 0.4 0.8 0.5 0.4 2.1 1.5 0.3 0.4 0.4 0.4 0.2 0.6 0.2 0.9 0.1 1.6 0.4 1.4 1 1.1 0.6 1.4 0.9 1.2 0.2 0.6 0.2 0.5 0.1 1.9 0 1.7-0.1 0.8-1.6 4.3z m-71.7-41.6l0.3 0.6 0.2 0.4 0.5 0.3-0.2 0.4-0.6-0.2-0.8-0.5-0.6-0.4 0-0.6 0.4-0.1 0.8 0.1z m-12.1-21.7l0.3 0.1 0 0.6-0.2 0.5-0.5 0.1-0.5 0-0.4-0.2 0.1-0.6 0.4-0.4 0.1-0.5 0.6 0 0.1 0.4z" id="PEICA" name="Ica">
  </path>
  <path  data-nombre="Lima" 
      data-equipos="8952"
      data-clientes="250"   d="M469.6 683l-1.3 0.6-1.4 0.9-0.6 0.2-4.7 0.7-3.3 0.1-1.1-0.3-2.4-1.1-0.2-0.1 0-0.1-0.2 0-0.3 0-0.4 0.2-0.4 0.6-0.6 1.7-0.4 0.5-0.5 0.6-6.9 5.7-0.4 0.5-1.8 3.5-0.8 1.1-2.3 1.7-1.2-1.7-1.6-1.5-3.2-4.2-3.9-5.1-1.6-1.8-0.3-1.2-0.7-1.1-0.6-2.2 0.3-1.8-0.3-2-0.7-1.3-0.5-0.6-3.4-2.9-0.9-1.2-2.1-4.1-0.4-0.6 0-1.4 0-0.4-0.4-0.5-0.8-0.8-1.5-2.1-2.1-1.4-1-0.7 0.4-0.2 0.3-0.2 0.4-0.2 0.7-0.6 0.2-0.6 0.1-0.6-0.1-0.5 0-0.6 0.4-1.3 2.7-1.2 0.4-0.3 0.2-0.3 0.2-0.2-0.1-0.2-0.2-0.1-0.1-0.2-0.2-0.2 0.1-0.9 0.2-0.5 0.1-0.3 0.3-0.4 0.2-0.2 0.2-0.4 0.1-0.5 0.5-0.7 0.4-1.2 0.1-0.4 0.1-0.4-0.1-0.4-0.1-0.3-0.5-0.4-0.4-0.4-0.9-1.6-0.2-0.2-0.3-0.3-0.4-0.5-0.3-0.7 0-0.5-0.3-0.5-0.6-0.6-0.2-0.7 0.1-0.5 0.5-0.3 0.4-0.3 0.2 0 1.4 0.7 0.1-0.1-0.1-0.3-0.7-0.9-0.7-0.7-0.9-0.8-0.5-0.1-0.4 0-0.1-0.2-0.3-0.2 0-1.5 0.1-0.5 0.6-0.4 0.3-0.1 0.4 0 0.9-0.6 0.4-0.7 0-0.4-0.2-0.5-0.7-1-0.2-0.4-0.1-0.3-1.1-1.1-0.5-0.4-0.6-0.4-0.3 0-0.6 0.8-1.9 1.9-0.3 0.2-0.6 0.2-0.3 0.3-0.4 0.4-0.4 0.2-0.7 0.2-1.4 0.6-0.4 0.1-0.4 0-0.2 0-0.2 0-0.1-0.3-0.1-0.6 0.1-0.5 0-0.3 0-0.2 0-0.3 0-0.3 0.1-0.8 0.1-0.2 0.2-0.2 0.2-0.4 0-0.3-0.2-0.3-0.5 0-0.5 0-0.3-0.2-0.1-0.5 0-0.6 0.1-0.3 0.3-0.3 0.5-0.5 0.2-0.4 0.1-0.8 0.2-0.3 0.3-0.2 0.4 0 0.4 0 0.5-0.1 0.3-0.1 1.3-1.7 0.2-0.5-0.1-0.2-0.5-0.2-1.3-0.1-0.9-0.4-0.8-0.1-0.7 0.3-0.2 0.4-0.5 0.4-0.3 0.1-0.5-0.3-0.3-0.3-0.3-0.3-0.4-0.6-0.4-1.2-0.1-0.5-0.1-0.2-0.3-0.1-0.5 0.1-1-0.3-0.2-0.2-0.1-0.2-0.1-1.1 0.4-0.8 0.1-0.6 0.2-0.5 0-0.2-0.2-0.3-0.7-0.7-0.4-0.3-0.3-0.2-0.4-0.3-0.6 0-0.2 0.1-0.2 0.2-0.5 1.6-0.4 0.7-0.4 0.5-0.5 0.3-0.2 0.5 0 0.4 0.1 0.2 0.1 0.3-0.2 0.2-1.3 0.3-1.3 1-0.1 0-0.1-0.5-0.6-1.2-0.7-1-0.7-0.3-0.6-0.3-0.6-0.5-0.8-1.1-0.2-0.3 0.4-0.5 0-0.4-0.2-0.4-0.9-1-0.6-1.3-0.4-0.5-0.4-0.2-0.6-0.2-0.3-0.4-0.7-0.8-0.8-0.6-2.1-0.9-1.6-1.4-7.6-4-1.2-1-0.6-0.5 0.1-0.6-0.1-1.2-0.3-1 0.4-0.3-0.2-0.4 0.4-0.4 0.5-0.1 0.6 0.2 0.4-0.3 0.6-0.2 0.2-0.8-0.1-1.3-0.6-1.1-0.5-0.7 0.2-0.6-1-1.2 0.3-0.5-0.5-0.8 0.2-0.5-0.4-0.9-0.9-1.1 0.2-0.5 0.5-0.4-0.5-1.1-0.4-0.7 0.1-0.7-0.4-1-0.5-0.8-0.7-1-0.8-1.1 0.1-0.8-1.2-1-0.9-0.8 0-0.8 0.2-0.4-0.8-1.2 0.1-0.3-1.4-1.3-0.8-0.6-0.3-0.6-0.2-0.5-0.4-0.4-1.1-1-2-3.5 1.3-1.1 0.3-0.1 0.8-0.3 0.5-0.2 0.4-0.4 0.4-0.6 0.4-0.9 0.2-0.6 0.1-0.5-0.1-0.3-0.2-0.8 0-0.5 0.1-0.5 0.7-2 0.1-0.5 0.1-2 0.2-0.4 0.6-0.3 0.6-0.1 2.8 0.3 0.7 0.8 0.2 0.3 0.4 1-0.2 0.9-0.4 0.9-0.3 0.4-0.3 0.4-0.7 0.6-1.2 0.9-0.7 0.6-0.1 0.1-0.2 0.4 0.1 0.4 0.4 0.4 0.9 0.3 0.7 0 1.2-0.1 0.5 0 0.5 0.2 0.9 0.9 0.5 0.4 1.4 0.6 0.5 0.3 0.3 0.6 0 0.5-0.1 0.6-0.3 1-0.1 0.5 0 0.5 0 0.5 0.1 0.5 0.4 1 0.1 0.5 0 0.5-0.1 0.6 0.1 0.5 0.3 0.3 0.8 0.1 3 0.1 0.8-0.1 2.4-1 1.6-1 1.8-3.2 4.9-2.8 1.3-0.9 2.4-2.4 1-1.5 0.6-1.1 0.1-0.6 0.2-2.4 0.2-0.6 0.2-0.4 2.2-1.3 8.5-3.6 0.2 1.6 0.3 0.5 0.5 0.6 0.5 0.3 0.5 0 0.7 0 0.7 0 1.1 0.3 0.5 0.4 0.2 0.6 0.2 1.2 0.4 1 1.8 1.2 0.3 0 0.9 0.1 1.3 2 0.4 1 0.9 3.9 0.4 0.8 1.3 2.4 0.4 0.8 0.2 0.8 0.6 3.1 1 1.6 1.5 1.6 0.7 1.2 0.3 4.3-0.2 2.7 0.1 0.7 0.1 0.4 0.3 0.4 2.4 1.5 0.7 0.7 0.4 1.2 0.1 0.7-0.1 0.7-0.2 3.4 0.4 5.1 0.4 2.2 2.4 2.4 0.6 1 0.2 1.1 1.6 5 0.8 1 0.4 0.8 0.6 0.4 1.2 0.7 0.4 0.4 0.6 0.7 0.4 0 0.7-0.5 0.6-0.1 1.1 0.3 0.5 0.4 0.3 0.4 0.1 0.7 0 2.2 0.4 2.2 0.1 2 0.2 0.7 0.3 0.5 2.2 2.2 0.3 0.7 0.4 1.5 0.3 0.4 0.4 0.4 0.9 0.6 1.6 1.3 1.9 4.4 0.4 0.6 0.7 0.6 0.5 0 0.9-0.2 2.3-1.1 0.7-0.1 1-0.1 0.6 0.1 3.9 1.8 0.5 0.2 0.3 0.3 1.3 0.9 3.8 1.4 2.4 1.9 0.2 0.4 0.3 0.9-0.9 1.8 0.1 0.9 0.6 1 3.5 7.4 0.6 0.7 0.6 1.8-0.4 4.4-0.3 1.1-0.7 1.7-0.4 1.6 0 0.8 0.3 0.6 0.4 0.3 1.8 1 2.7 2 0 1.5-1.1 2.2-1.3 1.8-2.1 2-1.7 0.9-0.4 0.6-0.3 1-0.6 3-0.6 1.8z" id="PELIM" name="Lima Province">
  </path>
  <path  data-nombre="Callao" 
      data-equipos="8952"
      data-clientes="250" d="M393.3 618l0.1 0 1.3-1 1.3-0.3 0.2-0.2-0.1-0.3-0.1-0.2 0-0.4 0.2-0.5 0.5-0.3 0.4-0.5 0.4-0.7 0.5-1.6 0.2-0.2 0.2-0.1 0.6 0 0.4 0.3 0.3 0.2 0.4 0.3 0.7 0.7 0.2 0.3 0 0.2-0.2 0.5-0.1 0.6-0.4 0.8 0.1 1.1 0.1 0.2 0.2 0.2 1 0.3 0.5-0.1 0.3 0.1 0.1 0.2 0.1 0.5 0.4 1.2 0.4 0.6 0.3 0.3 0.3 0.3 0.5 0.3 0.3-0.1 0.5-0.4 0.2-0.4 0.7-0.3 0.8 0.1 0.9 0.4 1.3 0.1 0.5 0.2 0.1 0.2-0.2 0.5-1.3 1.7-0.3 0.1-0.5 0.1-0.4 0-0.4 0-0.3 0.2-0.2 0.3-0.1 0.8-0.2 0.4-0.5 0.5-0.3 0.3-0.1 0.3 0 0.6 0.1 0.5 0.3 0.2 0.5 0 0.5 0 0.2 0.3 0 0.3-0.2 0.4-0.2 0.2-0.1 0.2-0.1 0.8 0 0.3 0 0.3 0 0.2 0 0.3-0.1 0.5 0.1 0.6 0.1 0.3 0.2 0 0.2 0 0.4 0 0.4-0.1 1.4-0.6 0.7-0.2 0.4-0.2 0.4-0.4 0.3-0.3 0.6-0.2 0.3-0.2 1.9-1.9 0.6-0.8 0.3 0 0.6 0.4 0.5 0.4 1.1 1.1 0.1 0.3 0.2 0.4 0.7 1 0.2 0.5 0 0.4-0.4 0.7-0.9 0.6-0.4 0-0.3 0.1-0.6 0.4-0.1 0.5 0 1.5 0.3 0.2 0.1 0.2 0.4 0 0.5 0.1 0.9 0.8 0.7 0.7 0.7 0.9 0.1 0.3-0.1 0.1-1.4-0.7-0.2 0-0.4 0.3-0.5 0.3-0.1 0.5 0.2 0.7 0.6 0.6 0.3 0.5 0 0.5 0.3 0.7 0.4 0.5 0.3 0.3 0.2 0.2 0.9 1.6 0.4 0.4 0.5 0.4 0.1 0.3 0.1 0.4-0.1 0.4-0.1 0.4-0.4 1.2-0.5 0.7-0.1 0.5-0.2 0.4-0.2 0.2-0.3 0.4-0.1 0.3-0.2 0.5-0.1 0.9 0.2 0.2 0.1 0.2 0.2 0.1 0.1 0.2-0.2 0.2-0.2 0.3-0.4 0.3-2.7 1.2-0.4 1.3 0 0.6 0.1 0.5-0.1 0.6-0.2 0.6-0.7 0.6-0.4 0.2-0.3 0.2-0.4 0.2-0.6-1.4 1-1.3 0.5-1.8-0.5-1.9-1.6-1.5-1.4-2.5-4.7-2.6-2.8-1.2-0.5 0-0.2-0.3-0.8-0.8-0.3-0.5-0.2-0.6 0.2-0.5 0.2-0.4 0.1-0.5-0.8-2-1.7-1.2-1.2-0.4 0.2-0.7 0.1-1.3-0.2-1.1-1.4-1-0.3-3.4-0.4-1.1-0.4-1.5-0.2-0.5-0.7-1.2-0.3-1 0.3-1.2-0.7-1.2 0-0.4 0.9 0.1 0.5-0.7-0.2-1-1.2-2.3-0.1-0.5z" id="CALLAO" name="Provincia del Callao">
  </path>

  <path data-nombre="Áncash" 
      data-equipos="8952"
      data-clientes="250"  d="M406.3 548.7l-8.5 3.6-2.2 1.3-0.2 0.4-0.2 0.6-0.2 2.4-0.1 0.6-0.6 1.1-1 1.5-2.4 2.4-1.3 0.9-4.9 2.8-1.8 3.2-1.6 1-2.4 1-0.8 0.1-3-0.1-0.8-0.1-0.3-0.3-0.1-0.5 0.1-0.6 0-0.5-0.1-0.5-0.4-1-0.1-0.5 0-0.5 0-0.5 0.1-0.5 0.3-1 0.1-0.6 0-0.5-0.3-0.6-0.5-0.3-1.4-0.6-0.5-0.4-0.9-0.9-0.5-0.2-0.5 0-1.2 0.1-0.7 0-0.9-0.3-0.4-0.4-0.1-0.4 0.2-0.4 0.1-0.1 0.7-0.6 1.2-0.9 0.7-0.6 0.3-0.4 0.3-0.4 0.4-0.9 0.2-0.9-0.4-1-0.2-0.3-0.7-0.8-2.8-0.3-0.6 0.1-0.6 0.3-0.2 0.4-0.1 2-0.1 0.5-0.7 2-0.1 0.5 0 0.5 0.2 0.8 0.1 0.3-0.1 0.5-0.2 0.6-0.4 0.9-0.4 0.6-0.4 0.4-0.5 0.2-0.8 0.3-0.3 0.1-1.3 1.1-1.1-1.8 0.2-0.6-0.7-1.2-0.9-0.7-1.3-1.1 0.1-0.8-0.5-1.1-0.9-1.2-0.8-0.9-0.1-0.5 0.4-0.5-0.1-0.5-0.5-0.6-1.9-1.2-0.1-0.9 0-1.3-0.9-0.8-0.4-0.4-0.1-0.8-0.4-1.1 0.2-0.6-0.5-0.7-0.2-0.6-0.9-1.1-2.1-1.9-0.4-1-0.4-0.5 0-0.5 0.4-0.1 0.3-0.3 0-0.6-0.5-0.6 0.2-0.3-0.1-0.6 0-0.4-0.8-1.1-0.2-1.1-0.3-0.6-0.4-0.6-0.2-0.5-0.5-0.2-0.1-0.3-0.3 0-0.1-0.3 0.1-0.3 0.3-0.3-0.1-0.5 0.1-0.6-0.1-0.6-0.2-0.8-0.3-0.4-0.1-0.9 0.2-1 0.4-0.7 0-1.5-1.9-1.8-1.6-1.8-0.3-1.1-0.8-0.9-0.4-0.9-0.5-0.5-0.6-1-0.7-0.8-0.2-1.6 0.3-1.3-0.9-0.5-0.2-0.9 0-0.7-0.4-0.7-0.4-1.2 0.4-0.6 0.6-0.7-0.3-0.7-0.7-0.1-1-0.7-0.2-1.4 0.1-0.8 0.4-0.4 0.3-0.3-0.5-0.2-0.5-0.5-0.4-0.3-0.2-0.6-0.7-0.3-0.6 0.1-0.5 0.3-1.1-1.3 0-0.5-0.1-0.5-0.5-0.3-0.4-0.4 0.5-0.4 0.4-0.3 0.6-0.2 0.3-0.9 0.1-1-0.4-1.2-0.9-0.6-1-0.2-0.7 0.2-0.4 0.3-0.2 0.4 0.2 0.4 0.1 0.6 0.2 1 0 0.6-0.6-0.2-0.6-1.3-1-1.1-0.7-0.7 0.1-0.6-0.2-0.2 0.2-0.3 0.7 0.3 1.2 0.3 0.3-0.4 0.2-0.5 0-1-0.4-1.2-0.5-0.7-0.6-0.6-0.7-0.1-0.9 0.1-0.4-0.3-0.5-0.8 0.1-0.8 0.3-0.8 0.3-0.5-0.5-0.4-1.1-0.5-0.1-0.5 0.4 0.1 0.3-0.3 0-0.9 0.9-0.1 0.4-0.5 0.2-0.3 0.5-1.7 0.5-4.2 1.1-2.1 1.8-1.4 7-2.3 2.6-1.9 1.2-0.3 1.2-0.1 1.2 0 0.2 0 0.4-0.1 1.6-3-0.3-0.9-0.3-0.9-0.1-0.5 0-0.5 0.4-0.6 1.5-2 1.8-3 0.1-0.4 0.1-0.5 0-0.5 0.1-0.4 0.1-0.5 1.1-1.6 0.2-0.4 0.1-0.9 0.2-0.5 0.4-0.6 7.5-6.4 0.8-0.9 0.6-0.9 0.7-2.4 0.4-0.6 0.4-0.4 0.8-0.1 0.6 0.1 0.6 0.2 1.1 0.3 1.3 0 0.7-0.1 1-0.3 1.4-0.6 1.3-0.4 1.7-0.7 0.8-0.6 1-0.5-0.3 0.9 0.2 1 0.6 0.8 0.8 0.9-0.4 0.5 0 0.6 0.1 0.6 0.3 0.6 0.7 1.1 3.5 3.2 1 0.4 0.5 0.3 0.3 0.2 0.6 0.7 3.1 4.8 3.5 4.3 0.9 1.8 0.4 1.3 0 1.8 0.3 0.6 0.1 0.5 0.3 1.7 0.5 1.2 0 0.4 0.1 2.4 0.3 0.7 0.5 0.4 1.2 0.7 0.6 0.5 1.4 1.9 0.3 0.7 0 0.7-0.2 0.6-0.1 0.6 0.3 0.8 0.8 1 2.7 2.6 0.7 0.4 2.3 0.7 0.4 0.7 1.8 1.6 1.6 2.3 0.5 0.4 0.7 0.3 2.5 0.8 0.3 0.2 0.2 0.3 0.2 0.3 0.1 0.3 0.4 0.2 0.6 1 1.2 0.7 2.4 0.8 1.5 0.7 1.2 1 0.8 0.8-0.1 1.6-0.3 0.6-0.4 0.4-0.8 0.6-3.8 3.7-0.5 0.8-4.9 11.4 0 2.5-0.7 1.7-3.7 4.4-0.7 1.1-0.4 0.8 0 0.6 0 0.4 0.2 0.6 1.1 1.5 1.6 3.7 0.6 2 0.1 3 0.3 1.9 0.2 0.6 0.3 0.6 0.8 0.6 0.4 0.2 0.5 0.2 0.6 0.2 0.6 0.2 0.6 0.4 0.2 0.5 0.1 0.4-0.2 0.5-0.8 1.9-0.2 0.5-0.3 2.4 0.2 2.7z" id="PEANC" name="Áncash">
  </path>
  <path data-nombre="La Libertad" 
      data-equipos="8952"
      data-clientes="250"    d="M354.6 387.1l0.9-0.3 2.1-0.4 1.1-0.4 0.8-0.2 0.8 0 1 0.2 1.6 0.5 1.1 0 2.7-0.3 0.7 0.7 0.4 0.7 0.7 1.2 1.1 3.7 0.5 0.5 2.6 1.8 0.5 0.6 0.4 0.7 0 0.9-0.1 0.7-1.2 2.6 0 1.2 0.3 1.6 1.4 3.1 1.2 1.7 0.9 0.9 1.3 1 0.4 0.5 1.3 2.1 1.4 1.5 0.5 0.7 0 1 0 0.7-1.1 2.8-0.2 1.2 0 1.6 0.3 2.1 0.2 1 0.4 1 0.9 1.9 1.9 2.8 0.4 0.8 0.2 0.7 0 1.5-0.1 0.5-0.1 0.3-0.4 0.6-0.2 0.4 0 0.2 0 0.1 0.2 0.4 0.4 0.4 0.9 0.9 0.2 0.5 0.2 0.5 0.3 0.5 0.6 0.5 1.3 0.3 1-0.1 0.7-0.2 0.9-0.4 1 0 0.7 0 5.2 1.6 1.7 0.7 2.1 0.7 1 0.4 2.2 1.3 0.3 0.3 3.2 3.8 0.2 0.7 0.3 1.2 1 11.1 0.2 0.8 0.2 0.4 0.7 1-0.4 1.1-1 1.3-0.5 0.3-0.7 0-2.1-0.6-0.8 0.1-0.6 0.1-0.6 0-0.4-0.4-0.3-0.6-0.4-2.3-0.5-1.3-0.2-0.3-0.2-0.2-0.6-0.1-0.8 0.1-2.3 0.8-0.7 0.4-0.9 0.3-1.1 0.1-4.5 0-3.1 0.1 0-1.8-0.4-1.3-0.9-1.8-3.5-4.3-3.1-4.8-0.6-0.7-0.3-0.2-0.5-0.3-1-0.4-3.5-3.2-0.7-1.1-0.3-0.6-0.1-0.6 0-0.6 0.4-0.5-0.8-0.9-0.6-0.8-0.2-1 0.3-0.9-1 0.5-0.8 0.6-1.7 0.7-1.3 0.4-1.4 0.6-1 0.3-0.7 0.1-1.3 0-1.1-0.3-0.6-0.2-0.6-0.1-0.8 0.1-0.4 0.4-0.4 0.6-0.7 2.4-0.6 0.9-0.8 0.9-7.5 6.4-0.4 0.6-0.2 0.5-0.1 0.9-0.2 0.4-1.1 1.6-0.1 0.5-0.1 0.4 0 0.5-0.1 0.5-0.1 0.4-1.8 3-1.5 2-0.4 0.6 0 0.5 0.1 0.5 0.3 0.9 0.3 0.9-1.6 3-0.4 0.1-0.2 0-1.2 0-1.2 0.1-1.2 0.3-2.6 1.9-7 2.3-1.8 1.4-1.1 2.1-0.5 4.2-0.5 1.7-0.2 0.3-0.4 0.5-0.9 0.1 0-0.2-0.3-1.3-0.4-0.7-0.6-1-0.3-0.8-0.8-0.8-1-1.4-2.3-3.1 0.1-0.4 0.1-0.5 0.3-0.4 0.6-0.4 0.1-1.4-0.2-1.2 0.1-0.7-0.4-1.3-0.4-1.9-1.5-2.1-1.5-1.9-1.9-1.8-1.1-0.8-1.5-0.6-0.7-0.6-0.6-0.7 0.2-0.7 0.5 0.1 0.3 0.1 0.6-0.4 0.2-1 0-1-3-4.5-0.1-1.1-1.2-1.6 0.2-0.7-1.6-1.8-5.1-4.5 0-1.2-2.9-1.9-5.7-4.3-2.5-2.9-1.6-2.3-0.6-2-2.4-2.7-0.5-0.6-0.5-0.5 0.2-0.4 0.6-0.2 0.6-0.5 0.1-1-0.6-1.1-1.8-2.8-3.5-4.8-1.3-1.6-0.1-1.2-0.2-0.9 0-0.5 0.5-0.6 0.2-0.6-0.5-1.5-0.6-1.2 0.1-1-0.9-2.2-1.5-1.7-1.9-2-0.7-0.7 0.3-0.8 1.2-1.5 8.2-8 0.3-0.2 0.4-0.2 0.8 0.1 4.5 1.3 1.4 1.1-0.6 7.4 0.8 1.4 0.1 0.5 0.1 0.7 0 0.6-0.2 0.5-0.4 1-0.4 0.9-0.6 0.7-0.4 0.5-0.3 1.3 0.2 0.4 0.2 0.4 0.4 0.3 0.9 0.5 2 0.5 3.2 1.2 0.7 0.1 1.6 0.4 1.1 0.8 2.7 2.2 0.7 0.8 0.5 0.6 0.1 0.5 0.1 0.3 1.4 2.4 0.2 0.5 0.1 0.5 0 0.5-0.1 0.4-0.4 1.3-0.1 0.6 0 0.8 0.3 0.4 2.5 2 0.4 0.2 0.3 0 0.6-1.2 0.2-0.2 0.1-0.1 0.2-0.2 0.2-0.2 0.1-0.2 0.1-0.2 0.2-0.9 0.1-0.3 0.2-0.4 0.4-0.6 0.4-0.3 0.8-0.5 0.9-0.3 0.2-0.1 0.2 0 1.2 0.1 0.9-0.1 1.9-0.8 1.2-0.8 0.3-0.1 0.6 0 1.8 0.7 1.2 0.7 0.3 0.2 0.4 0 0.9-0.5 0.5-0.2 0.8-0.2 1.6 0 0.9 0.1 0.6 0.2 2.1 1.4 1.5 1.2 1.1 0.7 2.1 0.4 2.1-0.3 0.4 0.2 0.5 0.3 0.3 0.4 0.4 0.6 0.8 0.6 0.8 0.3 1 0.2 0.5 0.3 0.2 0.2 0.1 0.5 0.1 1.8 0.3 0.8 0.8-0.2 0.6-0.2 1.3-0.2 0.6-0.3 2-1.6 2.2-2.2 0.6-0.3 0.6 0 0.4 0.3 0.6 0.7 0.4 0.3 0.7 0.2 0.6-0.1 2.7-1.1 0.7 0 1.9 0 0.5-0.2 0.3-0.3 0.6-1.6 0.4-1.5 0-1.2-0.1-1.1-0.2-1.1-0.1-0.5 0.2-0.6 2.6-1.7 0.7-0.2 0.6-0.1 0.6 0 1.6-0.2 0.5 0 1.4 0.2-0.4-0.9-0.4-0.8-1.1-1-1.3-0.8-0.9-1-0.4-1.8 0-1.7-0.1-0.5-0.3-0.1-0.3 0-0.3-0.2-0.2-0.4-0.1-0.3 0-1.3 0.2-0.4 0-0.3-0.4-0.6-0.3-0.2-0.4-0.2-0.4-0.2-0.1-0.4-0.2-0.7-0.5-0.6-0.5-0.4-0.4-0.4-0.3-0.8-0.6-3.3-0.9-1.4-0.2-1-0.7-0.7z" id="PELAL" name="La Libertad">
  </path>
  <path data-nombre="Lambayeque" 
      data-equipos="8952"
      data-clientes="250"  d="M283.3 336.8l0.7 0.6 0.5 0 0.5-0.3 0.5-0.2 0.8-0.3 0.5 0.2 0.3 0.2 0.2 0.5 0 0.2 0.3 0.4 1-0.8 0.5-0.6 0.6-0.2 0.6 0 0.4 0.2 0.3 0.3 0.3 0.3 1 0.4 1.1 0.4 0.7 0.3 0.5 0.3 0.2 0.5 0 0.5-0.1 0.5-0.3 0.5-0.2 0.4-2.9 2.7-0.3 0.4-0.1 0.5 0 0.5 0.1 0.6 0.5 0.5 0.7 0.2 0.7 0.3 0.2 0.4 0 0.6-0.4 1.4-1.7 1.8-4 0.8-1.1 0.4-0.8 0.4-0.5 0.4-0.8 0.7-0.4 0.6-0.5 0.8-0.2 0.6 0 0.5 0.2 0.4 0.7 1.3 0.3 0.4 0 0.6-0.1 0.5-0.5 1.2 0.3 2.3 0.2 0.4 0.5 0.3 0.5 0 0.5-0.1 0.5 0.1 0.7 0.3 0.4 0.6 0.3 0.6 0.9 2.5 0.9 1.9 0.7 0.8 0.6 0.4 1.1-0.1 1.2 0 1.4 0.8 2.4 0.5 0.4 0.3 0.5 0.5 0.1 0.5 0 0.6 0 0.6-0.2 0.5-0.2 0.4-0.4 0.3-0.9 0.4-0.6 0.5-1.6 2.3-1.1 0.8-1.2 0.4-0.9 0.5-0.4 0.4-0.2 0.5 0.1 4-0.1 0.7-0.1 0.4-0.3 0.3-0.3 0.1-0.6 0.1-1.4-1.1-4.5-1.3-0.8-0.1-0.4 0.2-0.3 0.2-8.2 8-1.2 1.5 0-0.2 0.1-1.3-0.9-1.2-5.2-5.2-2.5-2.5-0.6-1-2.6-2.3-0.7-1.5-0.2-1.6-0.7-1.6-1.2-1.4-0.8-0.9-5.6-4.4-2.4-1.6-6.3-3.6-7.9-4-8.3-4.2 1.1-0.9 1.6-2 4.2-6.3 0.2-0.6 0.6-1.9 0.3-0.7 0.8-1.3 5.9-6.9 0.6-0.4 0.6-0.4 15.1-4.3 1.8-1.2 0.4-0.4 0.3-0.8 0.2-1.4-0.2-5.1-0.8-4.8 0.2-1.1 0.3-0.2 0.2 0 1.3 0.8 2.1 2 3 2.3 0.5 0.6 0.8 1 0.2 0.7 0.3 0.5 0.3 0.4 0.7 0.8 0.3 0.6 0.2 0.5-0.1 0.5-0.3 0.4-0.2 0.4-0.5 0.9-0.1 0.5 0 0.3 0 0.3 0.1 0.4 0.2 0.5 0.4 0.3 0.8 0.2 1.3 0.1 0.7 0.2 0.6 0.3 0.7 0.6 0.4 0.6 0.3 0.5 0.6 1.3 0.4 0.4 0.5 0.3 1 0.1 0.5 0 1.1-0.1 1-0.3 0.6-0.1 0.6 0.1 2 0.6 0.5 0.3 0.4 0.3 0.9 1.5z" id="PELAM" name="Lambayeque">
  </path>
  <path   data-nombre="Cusco" 
      data-equipos="8952"
      data-clientes="250" d="M638.1 599.7l-0.2 3.1-0.8 2.6-6.4 11.9-0.8 2.7-0.2 2-0.7 3.1-0.4 1.4-0.4 1.8 0 0.8 0.8 4.1 0.2 0.5 0.1 0.3 0.2 0.2 0.9 0.9 4 2.5 3.5 1.7 0.6 0.5 0.5 0.8 0.5 1.1 1.3 5.1 0.5 0.8 0.4 0.7 0.6 0.5 1.4 0.6 1.5 0.3 0.7 0 0.6 0.2 0.5 0.2 0.5 0.3 0.6 0.7 0.4 0.6 1.1 2.3 1.6 3.8 0.7 2.3 0.4 1.7-0.1 1.1-0.8 2.2-0.2 0.9 0 1.3 0.3 0.8 0.5 0.8 1.2 2.5 0.8 1.3 1.5 1.1 1.3 0.6 9.1 2.9 1.1 0.1 0.9 0 2.5-0.2 1 0 0.6 0.2 0.6 0.2 1.1 0.9 0.9 0.5 5.2 2 7.4 2 0.8 0.4 6.1 4 0.7 0.2 1.6 0.2 1.3-0.1 13.7 2.5 6.1-0.4 1-0.4 0.6-0.5 0-0.6-0.4-0.5-1.2-0.8-0.7-0.4-0.4-0.6-0.3-0.6 0.2-0.7 0.5-0.3 0.8-0.1 1.5 0.1 2.3 0.5 2.6-0.3 1.6 0.2 1.6 0.3-1.3 5.6-0.2 1.8 0.8 3 0 0.6 0 0.6-0.4 1.3-1.2 2.9-0.8 1.1-2.9 3-1.3 1.2-1 1.2-0.8 1-1.4 2.6-4.6 11-0.8 1.4-0.7 0.5-1.3 0.4-3.9 0.6-0.8 0.5-0.4 2.5-0.2 2.6-1 4.2 0.4 0.7 0.5 0.7 0.6 0.5 0.5 1.1 0 1.2-1.1 6.6-0.4 1.2-0.8 1.9-1.6 6.1-0.2 0.5-0.3 0.3-0.4 0.3-2.6-0.1-0.4 0.3-0.5 0.4-0.8 2.3-0.3 1.5 0.2 0.8 0.5 1 0 0.5-0.1 0.5-0.2 0.3-0.6 0.5-0.3 0.2-0.9 0.9-0.6 0.7-0.5 0.4-0.5 0.4-0.5 0.1-1.3 0.1-0.9 0.2-0.3 0.7 0 0.5 0.1 0.5 0.3 0.4 1.1 1.7 0.9 1 0.4 0.4 0.5 0.2 0.5 0 0.6 0 0.7 0 1 0.6 0.4 0.6 0.1 0.6-0.5 2.3 0 0.7 0.2 0.9 0.5 1.7 0.1 0.9 0 0.7-1.1 1.8-0.4 1-0.1 1.5 0.8 1 0 0.3 0 0.2-0.2 0.8-0.2 0.6-0.2 1.1 0.1 0.7 0.2 0.6 0.3 0.4 0.4 0.9 0.5 1.3 0.3 1.7-0.1 4-0.2 0.7-0.3 0.5-0.3 0.2-0.8 0.3-0.3 0.1-0.6 0.5-0.9-0.8-1-1.5-0.8-0.8-1.3-1.1-0.8-0.4-1.4-0.5-0.7-0.3-0.3-0.5-0.2-0.4 0.2-2.2 0.2-1.1 0-0.7-0.1-0.5-0.4-0.9-0.3-0.6-0.4-0.4-0.4-0.3-0.5-0.2-0.5-0.1-0.5 0-0.5 0.1-0.4 0.2-0.4 0.3-1.4 1.5-0.4 0.2-0.6 0-0.7-0.2-0.5-0.3-2.8-2.5-0.7-0.5-0.7-0.2-1.1 0.2-0.8-0.2-1.5-1.2-0.6-0.1-0.4 0.2 0 0.4 0.1 0.5 0.2 0.4 0.1 0.5-0.1 0.4-0.3 0.4-0.5 0.2-0.6 0.1-0.6 0-1.1-0.1-0.6 0-1.1 0.2-0.5 0.1-0.8 0.4-1.3 1-0.4 0.1-0.5-0.1-0.6-0.4-0.5-0.2-6.1-1.6-1.3-0.6-0.6-0.6 0.1-0.5 0.5-0.9 0.1-0.4 0.1-0.4-0.1-0.4-0.4-2.7 0-0.5 0.3-0.4 0.4-0.3 0.9-0.5 0.3-0.3 0.3-0.4 0.2-0.4 0.1-0.5-0.2-0.4-0.5-0.1-0.7-0.1-1-0.3-0.6-0.3-0.5-0.4-0.3-0.4-0.3-0.4-0.6-1.6-1-1.4-2.3-3.3-1-1.1-0.4-0.2-0.2-0.2-0.4-0.1-0.5 0-0.5 0.1-0.3 0.4-0.2 0.4-0.2 0.5 0 0.5 0.1 0.5 0.6 0.8 0.2 0.5 0.1 0.5 0.1 0.5 0 1-0.2 0.5-0.5 1.1-0.2 0.5 0 0.5-0.1 0.4-1.2 1.9-0.5 0.2-0.5-0.1-0.4-0.2-0.3-0.4-0.3-0.4-0.2-0.5-0.6-1.5-0.2-0.5-0.4-0.3-0.4-0.3-0.7-0.1-0.5 0.1-1.2 0.6-1 0.4-1.2 0.2-1.4 0.2-3.2 0.8-3.1-0.8-1.2-0.7-3-3.8-0.3-0.5-0.1-0.5 0-0.4 0.2-1 0.1-0.9 0.2-1.2 0.1-1.2-0.1-0.6-0.2-0.5-0.7-1.3-0.1-0.5 0-0.6 0.1-0.5 0.3-0.5 0.3-0.4 0.5-0.6 0.5-0.4 0.7-0.3 1.1-0.3 0.8-0.4 0.8-0.6 0.4-0.6 0.3-0.5 0.4-0.4 0.5-0.3 1-0.2 0.9-0.2 0.6-0.4 1.7-0.4 0.5-0.4 1.3-2.7 0.5-0.7 1.1-1.2 1.2-1.6 0.4-0.3 0.3-0.3 1.7-1.2 0.3-0.3 0.3-0.4 0.6-1 1.4-5.3 0-8.8-0.7-1.4-0.8-1.4-0.2-0.5-1.1-2-0.5-1.3-0.7-1-2.7-2.4-0.4-0.5-0.4-0.2-1.5-1.1-0.2-0.3-2.5 0.2-0.7-0.2-1.9-1.1-0.9-0.6-0.6-0.7 0.4-0.4-1-1.5-0.6-0.6-0.6-0.3-2 0-0.7-0.1-0.3-0.2-0.2-0.2-0.3-0.2-1.9-0.5-2-0.2-0.5-0.1-0.4-0.7-0.4-0.2-0.6-0.1-3.5-2-3.2-2.6-1.6-0.8-1.8-0.3-2 0-0.3-0.2-0.2-0.4-0.2-0.5-0.1-0.5-0.3-0.1-1.3 0-1.6 0.1-0.7 0.4-1.5 1.1-0.1 0-0.2 0.1-0.3 0-0.5-0.3-0.2 0-0.7 0.1-0.3 0.2-0.9 0.9-1.1 0.6-0.8-0.4-0.8-0.7-0.9-0.4-0.4 0.1-0.3 0.3-0.4 0.2-0.3-0.1-0.4-0.3-1.8-0.5-0.3-0.6-1.3-1.2-2.4-1.5-0.3-0.4-0.2-0.6-0.9-1-1.3-2.2-2.5-3.2-1.4-1.2-1.6-0.5-0.3-0.3-1-2-0.7-0.6-1.7-0.9-0.8-0.4 0-0.3 0.7-1.1-1-3.9 0.5-0.9 0.2-0.1-0.1-0.4-0.3-0.3-0.5-0.2-0.4-0.2-0.2-0.4-0.7-2.6-0.4-0.9-0.3-0.3-0.3-0.4-0.5-1.8-0.1-1.8-0.2-0.7-0.7-1.1-0.4-0.9-0.4-1.7-0.4-0.7-2.4-2.5-0.8-0.4 0 0.2-0.2 0.5-0.1 0.3-0.7-0.6-2.6-3.5-0.4-1.4-0.3-0.7-0.5-0.3-0.9-0.3-0.2-0.6 0.3-1.3-0.1-0.9-0.2-0.4-0.3-0.3-0.5-0.7-0.2-0.6-0.3-1.3-0.3-0.6-1.9-2.3-1.3-2.3 4.9-0.1 1.8-0.2 5.7-1.6 1.6-0.7 0.5-0.2 0.3-0.3 0.7-0.7 0.3-0.4 0.9-1.9 0.3-1 0.2-1.1 0.1-1.1-0.1-2.1 0-0.5 0.2-1 0.2-0.5 4.7-7 0.2-0.5 0.7-4.2 0-0.9-0.1-0.5-0.1-0.5-0.2-0.4-0.2-0.2-1.4-1.1-0.8-0.5-0.5-0.2-1.4-0.4-1.9-0.8-0.5-0.2-0.6 0-1.1 0-0.5-0.1-0.3-0.2-0.1-0.6 0.2-0.4 0.4-0.3 1.6-1.1 4.6-3.7 2.8-4.1 2.2-4.8 0.4-1.4 1.4 0.3 2.2-0.8 1.3-0.2 3.5 0.1 6.3-0.9 1.9-0.5 1.6-0.6 0.4-0.3 0.4-0.3 1.7-2.5 0.4-0.3 0.6-0.2 0.4 0.3 0.3 0.5 0.2 0.5 0.1 0.6 0.2 0.5 0.3 0.4 0.6 0.7 0.3 0.4 0.1 1 0.2 0.5 1.3 1 1.9 0.6 0.5 0.2 1.1 1 0.7 0.3 1.6-0.2 0.5 0.1 0.6 0 0.4-0.2 0.5-0.3 0.5-0.3 0.9-0.1 0.5 0.2 0.2 0.5 0.2 0.5 0.2 0.5 0.5 0.2 0.5 0 0.4 0.2 1.2 0.9 0.5 0.2 0.6 0.3 2.1 0.4 1.7-0.3 0.5-0.2 0.5-0.3 0.3-0.4 0.4-0.3 0.5-0.3 1.2-0.5 0.4-0.3 1.9-1.6 0.9-0.7 1.7-0.7 3.4-1 0.4-0.2 0.4 0.1 0.9 0.6 0.6 0.3 0.5 0 1.3-0.4 0.6 0 0.5 0.1 0.8 0.3z" id="PECUS" name="Cusco">
  </path>
  <path  data-nombre="Ayacucho" 
      data-equipos="8952"
      data-clientes="250"  d="M605.5 770.9l0.2 1.7 0.4 1.2 0 0.4-0.3 0.3-0.5 0.2-1.1 0.4-0.6 0-0.6 0-2.2-0.3-0.6 0.1-0.6 0.1-0.9 0.4-0.5 0.3-0.3 0.3-0.3 0.3-0.5 0.8-0.3 0.5-0.4 2.3 0.4 1.1 0.7 0.9 0.3 0.7 0.1 0.6-0.1 0.6-0.3 0.7-0.3 2-0.2 2.5-0.5 2-0.6 0.8-2.9 2.7-0.4 0.6-1.5 3.1-0.6 0.8-0.3 0.3-0.4 0.3-0.4 0-0.4 0-1.4-0.5-1.1-0.3-1.1-0.1-0.5 0.1-0.5 0.2-0.3 0.4-0.2 1.5 0.1 2.1 0.3 1 0 0.5-2 0-3.6-0.4-1-0.3-0.4-0.3-1.5-0.5-5.7 2.6-2.1 0.5-2.2 0.1-5.1 0.8-5.1-0.1-0.9 0.2-0.7 0.3-0.3 0.4-2 3-0.6 1.5-0.3 0.5-0.5 0.4-3.7 2-0.8 0.1-0.5-0.2-0.2-0.5-0.1-0.5 0-0.5 0.4-2.2-0.1-0.5-0.2-0.4-0.3-0.3-0.3-0.4 0-0.1-0.1-0.2-0.1-1.4-0.1-0.5-0.4-0.4-0.5 0-0.4 0.1-1.2 0.9-1.2 0.7-1.2 0.4-0.6 0.2-0.5 0-1-0.1-1-0.3-0.5-0.3-0.5-0.2-0.4-0.3-1.6-1.8-0.3-0.5-0.2-0.4-0.1-0.5 0-1.1-1-0.6-1.9-0.7-0.5-0.4-0.3-0.5-0.1-0.6-0.3-0.9-0.5-1-1.2-1.7-0.4-1-0.1-0.8 0.2-0.5 0.1-0.5-0.1-0.4-0.4-0.3-0.5-0.2-1.8-0.3-3.7-1.2-3.7-0.7-1.3-0.4-0.5-0.4-0.3-0.4-0.2-0.5-0.1-0.4-0.1-0.7 1.6-4.3 0.1-0.8 0-1.7-0.1-1.9-0.2-0.5-0.2-0.6-0.9-1.2-0.6-1.4-1-1.1-0.4-1.4-0.1-1.6-0.2-0.9-0.2-0.6-0.4-0.4-0.3-0.4-2.1-1.5-0.5-0.4-0.4-0.8-0.1-0.6 0.4-1.3-0.2-0.5-0.4-0.4-0.4-0.4-0.4-0.4-0.6-0.8-0.4-0.5-0.5-0.4-0.5-0.2-0.5 0-0.5 0.1-0.4 0.3-1.2 1.6-0.3 0.4-0.4 0.2-0.5 0.2-2.5 0.5-0.5-0.1-0.2-0.4-0.1-1.3-0.6-2.1 1-2 0-0.5-0.1-0.7-0.5-0.9-0.3-0.4-0.3-0.3-2.1-1.4-0.4-0.4-0.4-0.6 0.4-0.9 0.4-0.8 0.5-0.7 1.8-3.6 0.3-1-0.2-0.8-0.9-2 0-0.9 0.1-0.8 0.3-0.5 0.5-0.8 0.5-1 1.1-0.8 2-0.9 8.2-1.7 2.6 0.2 0.8-0.1 0.4-0.3 0.4-0.7 0.2-0.9 0.5-5.9-0.4-2.6-1.1-3.5-1.8-3.9-0.3-1.6 0.2-3.8-0.3-0.9-0.3-0.6-0.2-0.3-0.3-0.3-0.4-0.3-0.8-0.6-0.3-0.4-0.3-0.4-0.2-0.4-0.2-0.6-0.1-0.2-0.2-0.2-0.7-0.6-1.4-0.7-0.4-0.3-0.3-0.4-0.2-0.4 1.4-4.7 0.3-0.3 0.3-0.2 2.4-0.6 1.9-0.8 0.5-0.1 0.4 0.1 0.5 0.3 0.3 0.4 0.7 1.5 0.3 0.4 0.5 0.3 0.7 0.2 1.4 0.1 0.7 0.3 0.6 0.2 1 0.1 1.7-1.8 0.3-0.4-0.1-0.2-0.8-0.3-0.6-0.1-0.6-0.2-0.4-0.2-1.2-1.3-0.3-0.5 0.2-0.4 0.6-0.6 2.4-1.3 0.6-0.7 0.8-1.5 0.3-0.3 0.4-0.2 0.3 0.1 0.9 0.4 0.5 0.1 0.5 0 1.1-0.3 0.5-0.1 1.1 0.1 1.7-0.4 0.6-0.3 0.9-0.5 0.4-0.7 0.1-0.6-0.1-0.5-0.1-0.4-0.4-0.9-0.3-1.1 0-0.7 0-0.6 0.1-0.5 0.1-0.5 0.3-0.5 0.3-0.3 0.4-0.3 0.5-0.3 0.6 0 0.7 0.1 1.1 0.5 1.5 1.1 0.4 0.2 0.3 0.1 0.4-0.6-0.1-1.2-0.1-0.8-1.4-3.5-1.2-1.2 0.3-1.6 0-0.4-0.2-1.6 0.3-0.3 0.2-0.1 0.1 0 0.7 0.1 0.1-0.1 0.1-0.2 0-0.2 0-0.3 0-0.2 0-0.2 0.3-0.5 0.1-0.3 0-0.2 0-0.7-0.1-0.6-0.2-0.5-1.1-2.2-0.2-0.7-0.1-0.5 0.2-0.5 0.1-0.6 0-1-0.1-0.6-0.3-0.8-0.5-0.8-2.4-3-1-1.5-0.2-0.5-0.6-1.4-0.1-0.3-0.3-0.2-0.3-0.2-0.7-0.2-0.4 0-0.3 0.1-0.5 0.2-0.2 0.1-0.3 0.1-0.3 0-0.5-0.3-0.3-0.3-1.8-2.8 1.1-2.7 1.4-4.3 0.3-0.5 0.4-0.7 1.7-1.7 3.2-2.3 0.9 1 0.2 0.3 0.3 0.7 0.2 0.9 0.1 0.2 0.2 0.2 0.1 0.1 0.4 0.2 1.7 0.6 0.5 0.3 0.3 0.2 1 1.1 0.8 0.6 0.7 0.7 0.4 0.3 0.5 0.3 2.1 0.6 0.4 0 0.4 0 0.9-0.3 0.7-0.4 1.3-1.3 0.6-0.4 0.4-0.2 0.4 0 0.4 0 0.8 0.2 0.8 0.4 0.2 0.1 0.3 0.3 0.8 0 2-0.2 1.3 2.3 1.9 2.3 0.3 0.6 0.3 1.3 0.2 0.6 0.5 0.7 0.3 0.3 0.2 0.4 0.1 0.9-0.3 1.3 0.2 0.6 0.9 0.3 0.5 0.3 0.3 0.7 0.4 1.4 2.6 3.5 0.7 0.6 0.1-0.3 0.2-0.5 0-0.2 0.8 0.4 2.4 2.5 0.4 0.7 0.4 1.7 0.4 0.9 0.7 1.1 0.2 0.7 0.1 1.8 0.5 1.8 0.3 0.4 0.3 0.3 0.4 0.9 0.7 2.6 0.2 0.4 0.4 0.2 0.5 0.2 0.3 0.3 0.1 0.4-0.2 0.1-0.5 0.9 1 3.9-0.7 1.1 0 0.3 0.8 0.4 1.7 0.9 0.7 0.6 1 2 0.3 0.3 1.6 0.5 1.4 1.2 2.5 3.2 1.3 2.2 0.9 1 0.2 0.6 0.3 0.4 2.4 1.5 1.3 1.2 0.3 0.6-0.2 0.5-0.4 1.4-0.3 0.5-0.5 0.3-0.6 0-1.6-0.4-0.7-0.1-0.8 0-0.6 0-1-0.5-0.5-0.1-4.6-0.7-1.4-0.7-2-2-0.8-0.6-8.4-5.4-1-0.9-0.6-1.1-0.7-0.7-0.5-0.3-0.6-0.1-0.5 0.2-0.3 0.4-0.2 0.4-0.3 1.1-0.5 0.9-0.1 0.4 0.1 0.5 0.7 1-0.4 0.9-1 1.4-0.3 0.8-0.1 0.7 0.3 1.7 0.1 0.5 0.5 1 0.1 1.7 0.4 1.9 0.3 3.5 0.1 0.8 0.8 1.5 0.3 0.6 0.5 0.2 0.8 0.2 0.4 0.1 0.5 0.3 0.3 0.3 0.3 0.4 1.1 1.8 1 1.3 0 0.7-0.2 0.3-0.6 0.2-2.1 0.6 0.3 1.1 5.5 10.6 0.4 3.3 0.6 2.1 0.4 1 0.4 0.8 1.1 1.6 1.6 2.5 0.2 0.8 0.1 0.7 0 0.8 0.2 2.1 0.1 2-0.4 3.4-0.3 3.1 0.1 0.9 1.2 2.1 0.7 1.5 0.1 1.2-1.2 4.2-0.3 0.5-0.5 0.2-1.2 0-0.5 0 0.1 0.4 1.9 5.3 0.7 0.7 0.9-0.2 1.3-0.3 1.5-0.2 0.5-0.1 0.4-0.3 0.3-0.4 0.5-0.9 0.3-0.4 1-1.1 0.3-0.4 0.2-0.5 0.2-0.5 0.2-0.5 0.3-0.3 0.5 0 0.5 0.2 1.1 0.4 0.8 0.2 0.6 0.1 0.5 0.1 1.2-0.2 1.1-0.2 2.1-0.7 1-0.2 0.9-0.1 0.4-0.2 0.4-0.2 0.7-0.7 0.5-0.2 0.5 0 0.8 0 0.7 0 0.5-0.2 0.3-0.4 0.4-0.8 0.4-0.5 1.4 0.7 1 0.8 1.2 0.6 1.6 1.3 0.6 0.4 3.1 1.4z" id="PEAYA" name="Ayacucho">
  </path>
  <path   data-nombre="Apurímac" 
      data-equipos="8952"
      data-clientes="250"  d="M623.2 768l-4.1 1.1-0.9 0.2-0.9-0.1-0.6-0.3-0.5-0.2-0.7-0.2-0.9-0.1-1.5 0.1-0.8-0.1-0.7-0.3-0.4-0.2-0.5-0.2-1-0.4-0.7 0.1-0.9 0.5-1.3 1.2-1.3 1.8-3.1-1.4-0.6-0.4-1.6-1.3-1.2-0.6-1-0.8-1.4-0.7-0.4 0.5-0.4 0.8-0.3 0.4-0.5 0.2-0.7 0-0.8 0-0.5 0-0.5 0.2-0.7 0.7-0.4 0.2-0.4 0.2-0.9 0.1-1 0.2-2.1 0.7-1.1 0.2-1.2 0.2-0.5-0.1-0.6-0.1-0.8-0.2-1.1-0.4-0.5-0.2-0.5 0-0.3 0.3-0.2 0.5-0.2 0.5-0.2 0.5-0.3 0.4-1 1.1-0.3 0.4-0.5 0.9-0.3 0.4-0.4 0.3-0.5 0.1-1.5 0.2-1.3 0.3-0.9 0.2-0.7-0.7-1.9-5.3-0.1-0.4 0.5 0 1.2 0 0.5-0.2 0.3-0.5 1.2-4.2-0.1-1.2-0.7-1.5-1.2-2.1-0.1-0.9 0.3-3.1 0.4-3.4-0.1-2-0.2-2.1 0-0.8-0.1-0.7-0.2-0.8-1.6-2.5-1.1-1.6-0.4-0.8-0.4-1-0.6-2.1-0.4-3.3-5.5-10.6-0.3-1.1 2.1-0.6 0.6-0.2 0.2-0.3 0-0.7-1-1.3-1.1-1.8-0.3-0.4-0.3-0.3-0.5-0.3-0.4-0.1-0.8-0.2-0.5-0.2-0.3-0.6-0.8-1.5-0.1-0.8-0.3-3.5-0.4-1.9-0.1-1.7-0.5-1-0.1-0.5-0.3-1.7 0.1-0.7 0.3-0.8 1-1.4 0.4-0.9-0.7-1-0.1-0.5 0.1-0.4 0.5-0.9 0.3-1.1 0.2-0.4 0.3-0.4 0.5-0.2 0.6 0.1 0.5 0.3 0.7 0.7 0.6 1.1 1 0.9 8.4 5.4 0.8 0.6 2 2 1.4 0.7 4.6 0.7 0.5 0.1 1 0.5 0.6 0 0.8 0 0.7 0.1 1.6 0.4 0.6 0 0.5-0.3 0.3-0.5 0.4-1.4 0.2-0.5 1.8 0.5 0.4 0.3 0.3 0.1 0.4-0.2 0.3-0.3 0.4-0.1 0.9 0.4 0.8 0.7 0.8 0.4 1.1-0.6 0.9-0.9 0.3-0.2 0.7-0.1 0.2 0 0.5 0.3 0.3 0 0.2-0.1 0.1 0 1.5-1.1 0.7-0.4 1.6-0.1 1.3 0 0.3 0.1 0.1 0.5 0.2 0.5 0.2 0.4 0.3 0.2 2 0 1.8 0.3 1.6 0.8 3.2 2.6 3.5 2 0.6 0.1 0.4 0.2 0.4 0.7 0.5 0.1 2 0.2 1.9 0.5 0.3 0.2 0.2 0.2 0.3 0.2 0.7 0.1 2 0 0.6 0.3 0.6 0.6 1 1.5-0.4 0.4 0.6 0.7 0.9 0.6 1.9 1.1 0.7 0.2 2.5-0.2 0.2 0.3 1.5 1.1 0.4 0.2 0.4 0.5 2.7 2.4 0.7 1 0.5 1.3 1.1 2 0.2 0.5 0.8 1.4 0.7 1.4 0 8.8-1.4 5.3-0.6 1-0.3 0.4-0.3 0.3-1.7 1.2-0.3 0.3-0.4 0.3-1.2 1.6-1.1 1.2-0.5 0.7-1.3 2.7-0.5 0.4-1.7 0.4-0.6 0.4-0.9 0.2-1 0.2-0.5 0.3-0.4 0.4-0.3 0.5-0.4 0.6-0.8 0.6-0.8 0.4-1.1 0.3-0.7 0.3-0.5 0.4-0.5 0.6-0.3 0.4-0.3 0.5-0.1 0.5 0 0.6 0.1 0.5 0.7 1.3 0.2 0.5 0.1 0.6-0.1 1.2-0.2 1.2z" id="PEAPU" name="Apurímac">
  </path>
  <path  data-nombre="Huancavelica" 
      data-equipos="8952"
      data-clientes="250"  d="M497.3 741.3l-1-1.3-1-0.9-0.9-0.5-0.6-0.2-0.7-0.1-1.4-0.1-1.4-0.3-2.2-2.4-2.6-1.8-0.9-0.9-0.7-0.4-0.4-0.2-1.9-0.1-0.6-0.2-1-0.3-0.7-0.4-0.8-0.7-0.6-0.3-2.8-1.2-0.6-0.5-0.4-0.5-0.5-1-0.1-0.4 0.1-0.5 0.5-0.8 0.1-0.5-0.1-0.5-0.8-1.3-0.1-0.5-0.1-0.4 0.1-0.6 0.7-0.9 1.5-2.9 0-0.7-0.2-0.6-0.5-0.9-0.9-2.3 0.5-0.8 0.7-0.7 0.5-0.9 1.5-3.5-0.3-0.6-0.5-0.3-0.5-0.2-1.8-0.1-1.1-0.2-2.5-1.1-1.6-0.4-1-0.1-1 0-3.3 0.2-1.4-0.3-0.3-0.4-0.2-0.4-0.1-0.5 0.1-0.6 0.2-0.5 0.5-0.9 0.8-1.2 0.2-0.5 0.2-0.6 0.2-1.2 0.1-0.5 0.4-0.4 0.4-0.3 0.9-0.4 0.4-0.4 0.4-0.6 0.2-1.1 0-0.8 0-0.7-0.7-2.8 0.1-0.7 0.2-0.5 0.4-0.3 1.9-0.9 0.5-0.4 0.5-0.6 0.5-1.1 0.2-0.6 0.1-0.4-0.1-0.1-0.1-0.3-0.3-0.5 0.6-1.8 0.6-3 0.3-1 0.4-0.6 1.7-0.9 2.1-2 1.3-1.8 1.1-2.2 0-1.5 0-0.5 0.2-1 0.2-0.5 0.3-0.4 0.6-0.3 0.4-0.1 0.5-0.3 0.4-0.4 0.3-0.7 0.4-1.3 0.3-0.5 0.5-0.6 3.7-3.8 0.6-0.4 0.9-0.3 0.7-0.2 0.6-0.2 0.5-0.5 1.4-2.2 1.2-0.7 3.1-0.7-0.4-0.1-0.1-0.1-0.2-0.2-0.3-0.6-0.1-0.2-0.2-1.2-0.5-0.9-0.1-0.2-0.1-0.5 0.1-0.1 0.3-0.1 0.7-0.2 1-0.3 0.6-0.4 0.3-0.5 0.3-0.4 1.7-3.2 0.1-0.6 0-0.6-0.1-1.2-0.2-0.5-0.2-0.4-0.3-0.4-1.2-0.9-0.6-0.8-0.2-0.5-0.2-0.5 0-0.5 0.2-0.4 0.3-0.4 1.1-0.9 0.3-0.4 0.2-0.3 0.3-0.7 0.2-0.4 0.3-0.2 0.6 0.2 0.3 0.4 0.9 1.3 0.3 0.3 0.4 0.3 0.4 0.2 0.6 0.3 1 0.3 0.7 0.1 0.8 0 1.2-0.2 1.9-0.6 0.6 0 0.8 0.1 0.5 0.3 0.7 0.1 0.8 0.1 1.1-0.1 2.4-0.6 0.3-0.2 0.2-0.2 0.4-0.7 0.3-0.5 0.3-0.4 0.2-0.1 0.2-0.1 0.3-0.1 0.5 0.1 2 0.4 1.2 0.2 0.9 0.4 2.2 1.7 1.5 0 0.3 0.1 0.4 0.3 3.2 3 2.5 2.1-3.2 2.3-1.7 1.7-0.4 0.7-0.3 0.5-1.4 4.3-1.1 2.7 1.8 2.8 0.3 0.3 0.5 0.3 0.3 0 0.3-0.1 0.2-0.1 0.5-0.2 0.3-0.1 0.4 0 0.7 0.2 0.3 0.2 0.3 0.2 0.1 0.3 0.6 1.4 0.2 0.5 1 1.5 2.4 3 0.5 0.8 0.3 0.8 0.1 0.6 0 1-0.1 0.6-0.2 0.5 0.1 0.5 0.2 0.7 1.1 2.2 0.2 0.5 0.1 0.6 0 0.7 0 0.2-0.1 0.3-0.3 0.5 0 0.2 0 0.2 0 0.3 0 0.2-0.1 0.2-0.1 0.1-0.7-0.1-0.1 0-0.2 0.1-0.3 0.3 0.2 1.6 0 0.4-0.3 1.6 1.2 1.2 1.4 3.5 0.1 0.8 0.1 1.2-0.4 0.6-0.3-0.1-0.4-0.2-1.5-1.1-1.1-0.5-0.7-0.1-0.6 0-0.5 0.3-0.4 0.3-0.3 0.3-0.3 0.5-0.1 0.5-0.1 0.5 0 0.6 0 0.7 0.3 1.1 0.4 0.9 0.1 0.4 0.1 0.5-0.1 0.6-0.4 0.7-0.9 0.5-0.6 0.3-1.7 0.4-1.1-0.1-0.5 0.1-1.1 0.3-0.5 0-0.5-0.1-0.9-0.4-0.3-0.1-0.4 0.2-0.3 0.3-0.8 1.5-0.6 0.7-2.4 1.3-0.6 0.6-0.2 0.4 0.3 0.5 1.2 1.3 0.4 0.2 0.6 0.2 0.6 0.1 0.8 0.3 0.1 0.2-0.3 0.4-1.7 1.8-1-0.1-0.6-0.2-0.7-0.3-1.4-0.1-0.7-0.2-0.5-0.3-0.3-0.4-0.7-1.5-0.3-0.4-0.5-0.3-0.4-0.1-0.5 0.1-1.9 0.8-2.4 0.6-0.3 0.2-0.3 0.3-1.4 4.7 0.2 0.4 0.3 0.4 0.4 0.3 1.4 0.7 0.7 0.6 0.2 0.2 0.1 0.2 0.2 0.6 0.2 0.4 0.3 0.4 0.3 0.4 0.8 0.6 0.4 0.3 0.3 0.3 0.2 0.3 0.3 0.6 0.3 0.9-0.2 3.8 0.3 1.6 1.8 3.9 1.1 3.5 0.4 2.6-0.5 5.9-0.2 0.9-0.4 0.7-0.4 0.3-0.8 0.1-2.6-0.2-8.2 1.7-2 0.9-1.1 0.8-0.5 1z" id="PEHUV" name="Huancavelica">
  </path>
  <path  data-nombre="San Martín" 
      data-equipos="8952"
      data-clientes="250"  d="M371.7 307.2l1 1.2 2.2 1.6 1.3 0.8 5.7 2.2 3.1 1.6 1.9 1.7 0.4 0.6 1.2 1.3 2.5 2.1 2 1 1.4 0.4 10.1 0.4 1.7 0.6 1.1 0.5 1.2 0.8 2.5 1.9 1.4 1.6 0.8 1.5 1.5 5 1.2 2.2 1.5 1.6 1.5 1 0.9 0.4 1.4 0.5 1 0.1 0.9-0.1 1.4-0.3 1.4-0.7 7.1-5 1.5-0.5 0.8 0.1 1 0.2 0.8 0.4 0.7 0.5 1.1 1.3 1.2 1.7 3.9 4 0.8 0.6 1 0.6 1.8 0.6 1.1 0.1 0.9-0.1 2-0.4 4.5-0.3 3.2 0.2 6 1.2 2.6 0.7 3.1 1.2 1.5 0.9 3.3 3.4 0.4 0.5 1 1.7 0.3 0.7 0.2 0.6 0 0.6 0.1 0.7-1.4 14.1 0 1.8 0 0.5-0.9 4-0.2 0.6-0.4 0.6-2.5 3.7-0.9 2-0.4 0.6-0.6 0.4-0.6 0.4-0.7 0.1-0.8-0.1-0.6-0.3-0.6-0.5-4.2-5.4-1.2-1-1.5-0.9-1-0.5-1.9-0.5-1.2-0.2-1.3 0-1 0.2-1.1 0.3-0.6 0.3-1 0.8-1.6 2.3-2.4 5.3-0.8 2.6-0.1 0.4 0.1 0.4 0.4 1.4 0.3 0.8 0.4 1 0.1 1.7-0.7 10.8 0.4 2.8 0.5 2.5 1.1 3.2 11.9 25.3 1.6 4.9 0.2 1.7 0 1.2-0.3 0.9-0.3 0.7-0.4 0.7-4.7 5.6-0.3 0.8-0.3 0.9-0.5 2.5-0.4 2.7-1.4 4.7-2.4 1.5-0.4 0.4-0.7 0.9-1.7 2.8-0.3 0.8-0.6 0.8-1.4 1-1.4 0-0.5-0.3-0.6-0.5-0.4-0.5-0.3-0.5-0.3-2-0.7-2.1-0.2-0.6-0.1-0.4-0.2-1-0.3-0.5-0.3-0.5-0.7-0.5-0.4-0.5-0.2-0.5-0.2-0.9-0.1-0.2-0.1-0.2-1.1-0.9-0.3-0.4-0.1-0.5 0-1.1-0.1-0.5-0.2-0.5-0.8-1.6-0.4-0.3-0.7 0-0.8 0.5-0.4 0.4-0.3 0.6-0.2 1.1 0.1 3.6-0.2 2.2-0.5 1.1-0.3 0.5-0.5 0.5-1.5 0.3-1.8 0.1-6.8-1.1-1.1-0.4-4.2-0.9-1.6-0.5-1.6-0.2-4.2 0.9-0.7-1-0.2-0.4-0.2-0.8-1-11.1-0.3-1.2-0.2-0.7-3.2-3.8-0.3-0.3-2.2-1.3-1-0.4-2.1-0.7-1.7-0.7-5.2-1.6-0.7 0-1 0-0.9 0.4-0.7 0.2-1 0.1-1.3-0.3-0.6-0.5-0.3-0.5-0.2-0.5-0.2-0.5-0.9-0.9-0.4-0.4-0.2-0.4 0-0.1 0-0.2 0.2-0.4 0.4-0.6 0.1-0.3 0.1-0.5 0-1.5-0.2-0.7-0.4-0.8-1.9-2.8-0.9-1.9-0.4-1-0.2-1-0.3-2.1 0-1.6 0.2-1.2 1.1-2.8 0-0.7 0-1-0.5-0.7-1.4-1.5-1.3-2.1-0.4-0.5-1.3-1-0.9-0.9-1.2-1.7-1.4-3.1-0.3-1.6 0-1.2 1.2-2.6 0.1-0.7 0-0.9-0.4-0.7-0.5-0.6-2.6-1.8-0.5-0.5-1.1-3.7-0.7-1.2-0.4-0.7-0.7-0.7-0.8-0.6-0.4-0.5-0.4-0.6-0.2-0.8-0.1-1.1 0.2-1.5 1.4-4.3 0.5-4.8 0-2.8 0.3-1.7 0.4-0.8 0.4-0.5 1.3-0.8 0.9 0.2 1.3 0.6 1.5 0.9 0.7 0.3 0.8 0.2 0.8 0.1 2.6-0.3 1 0.1 1.4 0.2 0.8 0 3.3-0.9 0.9-0.5 0.9-0.8 0.6-1.2 0.3-0.9 0.4-1.5 0.3-0.8 0.7-0.8 0.9-1 4.3-3.7 1.3-1.6-0.1-1.5-1.3-3.8-0.2-1-0.6-1.2-1.2-2-1.1-1.2-0.9-0.7-1.6-0.8-2.5-1-6.3-1.7-1.9-0.6-1.4-0.7-0.7-0.7-1.2-1.7-1.3-3-4.7-8.6-0.4-2.1 0.9-1.4 0.2-0.7 0.1-1.1 0-0.8-0.8-4.8 0-0.7 0.2-0.6 0.3-0.8 1.4-2.1 1.8-1.5z" id="PESAM" name="San Martín">
  </path>
  <path data-nombre="Huánuco" 
      data-equipos="8952"
      data-clientes="250"  d="M454 463.7l-1 3.8 0.2 1.9 0.7 1.5 2.2 3.2 0.3 0.9 0.2 0.8 0.8 8.7 0.1 0.4 0.1 0.2 0.2 0.3 0.3 0.2 0.4 0.1 0.4 0.2 0.5 0.2 0.5 0.5 0.5 0.6 1 1.9 0.1 0.5 0.2 1 0.1 0.6-0.1 0.6-0.1 0.6 0 0.8 0.1 0.8 0.3 1.7 0.3 0.8 0.4 0.6 0.3 0.4 1.3 0.8 0.7 0.7 0.4 0.4 2.2 4.5 0.6 0.7 0.7 0.5 1.6 0 1.2-0.2 1.2-0.6 0.5-0.3 5.9-4.9 0.4-0.3 1.4-0.2 1.1-0.3 2.2-0.8 1-0.6 0.7-0.5 1-1.7 1.5-1.5 0.4-0.5 0.7-1.9 0.5-1 1.1-1.6 0.3-0.4 0.5-1.5 0.3-0.6 0.4-0.6 1.2-1.5 3-4.5 1.6-2.1 2.4-2.4 1.2-0.8 2.5-1.2 0.5-0.3 4.2-3.6 0.8-0.5 3.5-1.4 1.4-0.4 1.1-0.2 4.5 0.4 0.6 0.1 0.5 0.2 0.8 0.5 0.4 0.3 0.3 0.4 0.3 0.4 0.2 0.4 0.3 1.1 0.3 1 0.1 0.6 0 0.4-0.2 0.6-0.3 0.5-0.9 0.7-2.7 1.4-0.5 0.3-0.3 0.3-0.2 0.5-0.2 0.5-0.2 4.9-0.4 1.7-1.2 2.7-0.8 1.3-0.2 0.5-0.2 0.5-0.1 0.6 0 0.6 0.6 2.2 0 0.6-0.1 1.2-0.5 2.3-1.4 4.1-0.5 2.2 0 0.4 0 0.4 0.2 0.6 0.7 1.9 0.7 1.2 0.9 1 6.4 9.5-11 5.1-10.4 1.9-0.4 0-5.7-0.9-0.8 0-0.7 0.1-9.4 4.5-1.4 0.4-3.8 0.9-3.1 0.2-5.9-0.2-3.6 0.4-0.8 0.2-1.3 0.4-0.7 0.4-1.6 1-1 0.9-0.5 0.9-0.5 1.2-0.4 2.3-0.1 1.3 0.1 1.1 1.8 8.9 1.1 2.6-0.5 0.8-1.3 1-6.8 3-2-1.5-2.4-0.9-9.4-0.6-0.4-0.1-0.5-0.3-0.3-0.2-0.6-1.1-0.4-0.7-0.6-0.7-0.4-0.3-0.8-0.6-1.9-0.8-2.1-0.3-5.9-0.1-2.7 0.7-0.6 0.3-0.5 0.5-3.2 4.4-1.2 1-3.4 2.2-0.9-0.1-0.3 0-1.8-1.2-0.4-1-0.2-1.2-0.2-0.6-0.5-0.4-1.1-0.3-0.7 0-0.7 0-0.5 0-0.5-0.3-0.5-0.6-0.3-0.5-0.2-1.6-0.2-2.7 0.3-2.4 0.2-0.5 0.8-1.9 0.2-0.5-0.1-0.4-0.2-0.5-0.6-0.4-0.6-0.2-0.6-0.2-0.5-0.2-0.4-0.2-0.8-0.6-0.3-0.6-0.2-0.6-0.3-1.9-0.1-3-0.6-2-1.6-3.7-1.1-1.5-0.2-0.6 0-0.4 0-0.6 0.4-0.8 0.7-1.1 3.7-4.4 0.7-1.7 0-2.5 4.9-11.4 0.5-0.8 3.8-3.7 0.8-0.6 0.4-0.4 0.3-0.6 0.1-1.6-0.8-0.8-1.2-1-1.5-0.7-2.4-0.8-1.2-0.7-0.6-1-0.4-0.2-0.1-0.3-0.2-0.3-0.2-0.3-0.3-0.2-2.5-0.8-0.7-0.3-0.5-0.4-1.6-2.3-1.8-1.6-0.4-0.7-2.3-0.7-0.7-0.4-2.7-2.6-0.8-1-0.3-0.8 0.1-0.6 0.2-0.6 0-0.7-0.3-0.7-1.4-1.9-0.6-0.5-1.2-0.7-0.5-0.4-0.3-0.7-0.1-2.4 0-0.4-0.5-1.2-0.3-1.7-0.1-0.5-0.3-0.6 3.1-0.1 4.5 0 1.1-0.1 0.9-0.3 0.7-0.4 2.3-0.8 0.8-0.1 0.6 0.1 0.2 0.2 0.2 0.3 0.5 1.3 0.4 2.3 0.3 0.6 0.4 0.4 0.6 0 0.6-0.1 0.8-0.1 2.1 0.6 0.7 0 0.5-0.3 1-1.3 0.4-1.1 4.2-0.9 1.6 0.2 1.6 0.5 4.2 0.9 1.1 0.4 6.8 1.1 1.8-0.1 1.5-0.3 0.5-0.5 0.3-0.5 0.5-1.1 0.2-2.2-0.1-3.6 0.2-1.1 0.3-0.6 0.4-0.4 0.8-0.5 0.7 0 0.4 0.3 0.8 1.6 0.2 0.5 0.1 0.5 0 1.1 0.1 0.5 0.3 0.4 1.1 0.9 0.1 0.2 0.1 0.2 0.2 0.9 0.2 0.5 0.4 0.5 0.7 0.5 0.3 0.5 0.3 0.5 0.2 1 0.1 0.4 0.2 0.6 0.7 2.1 0.3 2 0.3 0.5 0.4 0.5 0.6 0.5 0.5 0.3 1.4 0 1.4-1 0.6-0.8 0.3-0.8 1.7-2.8 0.7-0.9 0.4-0.4 2.4-1.5z" id="PEHUC" name="Huánuco">
  </path>
  <path  data-nombre="Pasco" 
      data-equipos="8952"
      data-clientes="250" d="M523.1 517.2l1.2 1.4 0.5 0.8 1.1 2.4 1.9 5.1 0.3 1.7-0.2 1.9 0.1 1.7 0.7 2.3 2.4 4.2 0.6 1.4 0.1 1.3-0.7 7.2 0 0.8 0.2 0.7 1.5 3.9 0.4 0.7 0.9 2.1 0.7 2.3 0.1 0.3 0.2 0.2 0.6 0.3 3.5 1.3 0.7 0.4 0.5 0.5 0.5 0.6 0.3 0.6-0.1 0.6-0.3 0.5-0.5 0.3-2.2 0.7-2.2 1.3-0.8 0.6-2.1 2.1-1 0.9-2.8 2.9-2.6 2.2-2.1 1.2-8.6 0.1-4.7-1.3-1.9-1-0.8-0.5-3.5-2.9-2.6-1.5-1.9-0.9-0.5-0.2-0.7-0.1-0.9 0.1-0.8 0.2-1.1 0.6-0.6 0.5-0.7 0.8-0.7 0.3-7.6 1.9-1.6 0.8-1.7 0.3-4.8 0.1-4.2 1.1-10.9 3.4-11.6 0.3-0.3-0.1-0.3-0.1-0.4-0.3-0.3-0.3-0.5-0.8-0.3-0.4-0.5-0.1-0.6 0.3-3.2 2.5-1.3 0.5-1.3 0.3-1.1 0-2-0.3-0.5-0.2-0.4-0.1-0.2-0.1-0.3-0.1-0.2 0-0.3 0.6-0.1 1.1 0.2 2.7 0.3 1.8 0.1 0.8-0.5 1.8-6.2 1-1.2 0.1-2.8-0.3 0.1-0.7-0.1-0.7-0.4-1.2-0.7-0.7-2.4-1.5-0.3-0.4-0.1-0.4-0.1-0.7 0.2-2.7-0.3-4.3-0.7-1.2-1.5-1.6-1-1.6-0.6-3.1-0.2-0.8-0.4-0.8-1.3-2.4-0.4-0.8-0.9-3.9-0.4-1-1.3-2 3.4-2.2 1.2-1 3.2-4.4 0.5-0.5 0.6-0.3 2.7-0.7 5.9 0.1 2.1 0.3 1.9 0.8 0.8 0.6 0.4 0.3 0.6 0.7 0.4 0.7 0.6 1.1 0.3 0.2 0.5 0.3 0.4 0.1 9.4 0.6 2.4 0.9 2 1.5 6.8-3 1.3-1 0.5-0.8-1.1-2.6-1.8-8.9-0.1-1.1 0.1-1.3 0.4-2.3 0.5-1.2 0.5-0.9 1-0.9 1.6-1 0.7-0.4 1.3-0.4 0.8-0.2 3.6-0.4 5.9 0.2 3.1-0.2 3.8-0.9 1.4-0.4 9.4-4.5 0.7-0.1 0.8 0 5.7 0.9 0.4 0 10.4-1.9 11-5.1z" id="PEPAS" name="Pasco">
  
  </path>
  <path  data-nombre="Junín" 
      data-equipos="8952"
      data-clientes="250"  d="M524.5 576.6l0.9 4.7 0.5 1.8 0.3 0.6 1.3 2 0.7 0.5 0.9 0.3 1.4 0.1 2-0.5 1-0.5 0.7-0.5 0.7-0.3 0.9-0.2 2.8 0.2 1.1-0.1 0.8-0.2 0.9-0.5 2.6-0.7 0.7-0.1 0.8 0 1.5-0.3 0.7-0.2 0.8-0.1 2.2 0.3 1.4 0 0.8-0.2 0.7-0.4 0.6-0.5 0.7-0.6 3.7-5.2 1.9-3.4 0.6-0.5 0.7 0.1 1.1 0.5 1 0.3 2.3 0.5 0.5 0.2 0.5 0.2 0.8 0.6 0.7 0.7 1.8 2.3 1.8 3 1.6 3.5 0.1 0.4 0 1.8-1.1 6.6 0.1 0.4 0.1 0.6 1 3 0.7 1.5 1.1 1.3 1 0.7-0.4 1.4-2.2 4.8-2.8 4.1-4.6 3.7-1.6 1.1-0.4 0.3-0.2 0.4 0.1 0.6 0.3 0.2 0.5 0.1 1.1 0 0.6 0 0.5 0.2 1.9 0.8 1.4 0.4 0.5 0.2 0.8 0.5 1.4 1.1 0.2 0.2 0.2 0.4 0.1 0.5 0.1 0.5 0 0.9-0.7 4.2-0.2 0.5-4.7 7-0.2 0.5-0.2 1 0 0.5 0.1 2.1-0.1 1.1-0.2 1.1-0.3 1-0.9 1.9-0.3 0.4-0.7 0.7-0.3 0.3-0.5 0.2-1.6 0.7-5.7 1.6-1.8 0.2-4.9 0.1-2 0.2-0.8 0-0.3-0.3-0.2-0.1-0.8-0.4-0.8-0.2-0.4 0-0.4 0-0.4 0.2-0.6 0.4-1.3 1.3-0.7 0.4-0.9 0.3-0.4 0-0.4 0-2.1-0.6-0.5-0.3-0.4-0.3-0.7-0.7-0.8-0.6-1-1.1-0.3-0.2-0.5-0.3-1.7-0.6-0.4-0.2-0.1-0.1-0.2-0.2-0.1-0.2-0.2-0.9-0.3-0.7-0.2-0.3-0.9-1-2.5-2.1-3.2-3-0.4-0.3-0.3-0.1-1.5 0-2.2-1.7-0.9-0.4-1.2-0.2-2-0.4-0.5-0.1-0.3 0.1-0.2 0.1-0.2 0.1-0.3 0.4-0.3 0.5-0.4 0.7-0.2 0.2-0.3 0.2-2.4 0.6-1.1 0.1-0.8-0.1-0.7-0.1-0.5-0.3-0.8-0.1-0.6 0-1.9 0.6-1.2 0.2-0.8 0-0.7-0.1-1-0.3-0.6-0.3-0.4-0.2-0.4-0.3-0.3-0.3-0.9-1.3-0.3-0.4-0.6-0.2-0.3 0.2-0.2 0.4-0.3 0.7-0.2 0.3-0.3 0.4-1.1 0.9-0.3 0.4-0.2 0.4 0 0.5 0.2 0.5 0.2 0.5 0.6 0.8 1.2 0.9 0.3 0.4 0.2 0.4 0.2 0.5 0.1 1.2 0 0.6-0.1 0.6-1.7 3.2-0.3 0.4-0.3 0.5-0.6 0.4-1 0.3-0.7 0.2-0.3 0.1-0.1 0.1 0.1 0.5 0.1 0.2 0.5 0.9 0.2 1.2 0.1 0.2 0.3 0.6 0.2 0.2 0.1 0.1 0.4 0.1-3.1 0.7-1.2 0.7-1.4 2.2-0.5 0.5-0.6 0.2-0.7 0.2-0.9 0.3-0.6 0.4-3.7 3.8-0.5 0.6-0.3 0.5-0.4 1.3-0.3 0.7-0.4 0.4-0.5 0.3-0.4 0.1-0.6 0.3-0.3 0.4-0.2 0.5-0.2 1 0 0.5-2.7-2-1.8-1-0.4-0.3-0.3-0.6 0-0.8 0.4-1.6 0.7-1.7 0.3-1.1 0.4-4.4-0.6-1.8-0.6-0.7-3.5-7.4-0.6-1-0.1-0.9 0.9-1.8-0.3-0.9-0.2-0.4-2.4-1.9-3.8-1.4-1.3-0.9-0.3-0.3-0.5-0.2-3.9-1.8-0.6-0.1-1 0.1-0.7 0.1-2.3 1.1-0.9 0.2-0.5 0-0.7-0.6-0.4-0.6-1.9-4.4-1.6-1.3-0.9-0.6-0.4-0.4-0.3-0.4-0.4-1.5-0.3-0.7-2.2-2.2-0.3-0.5-0.2-0.7-0.1-2-0.4-2.2 0-2.2-0.1-0.7-0.3-0.4-0.5-0.4-1.1-0.3-0.6 0.1-0.7 0.5-0.4 0-0.6-0.7-0.4-0.4-1.2-0.7-0.6-0.4-0.4-0.8-0.8-1-1.6-5-0.2-1.1-0.6-1-2.4-2.4-0.4-2.2-0.4-5.1 0.2-3.4 2.8 0.3 1.2-0.1 6.2-1 0.5-1.8-0.1-0.8-0.3-1.8-0.2-2.7 0.1-1.1 0.3-0.6 0.2 0 0.3 0.1 0.2 0.1 0.4 0.1 0.5 0.2 2 0.3 1.1 0 1.3-0.3 1.3-0.5 3.2-2.5 0.6-0.3 0.5 0.1 0.3 0.4 0.5 0.8 0.3 0.3 0.4 0.3 0.3 0.1 0.3 0.1 11.6-0.3 10.9-3.4 4.2-1.1 4.8-0.1 1.7-0.3 1.6-0.8 7.6-1.9 0.7-0.3 0.7-0.8 0.6-0.5 1.1-0.6 0.8-0.2 0.9-0.1 0.7 0.1 0.5 0.2 1.9 0.9 2.6 1.5 3.5 2.9 0.8 0.5 1.9 1 4.7 1.3 8.6-0.1z" id="PEJUN" name="Junín">
  </path>
 </g>
   <g id="points">
    <circle class="-17.42231350385865|-80.70489227456292" cx="222.1" cy="907.6" id="0"/>
    <circle class="-10.098852117597612|-74.37823975221171" cx="530.9" cy="539.4" id="1"/>
    <circle class="-0.9445253847713149|-69.31691773433074" cx="777.9" cy="90.1" id="2"/>
  </g>
  <g id="label_points" visibility="hidden">
    <circle class="Tacna"  id="PETAC"/>
    <circle class="Madre de Dios" cx="715.7" cy="636.2" id="PEMDD"/>
    <circle class="Loreto" cx="509.8" cy="235" id="PELOR"/>
    <circle class="Amazonas" cx="345.5" cy="297.7" id="PEAMA"/>
    <circle class="Cajamarca" cx="324.5" cy="381.3" id="PECAJ"/>
    <circle class="Tumbes" cx="226.8" cy="231.6" id="PETUM"/>
    <circle class="Piura" cx="238.7" cy="292.7" id="PEPIU"/>
    <circle class="Ucayali" cx="596.4" cy="544.3" id="PEUCA"/>
    <circle class="Puno" cx="736.1" cy="789.7" id="PEPUN"/>
    <circle class="Moquegua" cx="699.7" cy="880.6" id="PEMOQ"/>
    <circle class="Arequipa" cx="631.6" cy="826.4" id="PEARE"/>
    <circle class="Ica" cx="472.9" cy="751.8" id="PEICA"/>
    <circle class="Lima Province" cx="446.1" cy="659.8" id="PELIM"/>
    <circle class="Lima" cx="408.5" cy="639.1" id="PELMA"/>
    <circle class="Callao" cx="396.5" cy="636.4" id="PECAL"/>
    <circle class="Áncash" cx="370.1" cy="503.3" id="PEANC"/>
    <circle class="La Libertad" cx="327.5" cy="441.4" id="PELAL"/>
    <circle class="Lambayeque" cx="262.4" cy="351.9" id="PELAM"/>
    <circle class="Cusco" cx="602.9" cy="660.1" id="PECUS"/>
    <circle class="Ayacucho" cx="539.6" cy="755" id="PEAYA"/>
    <circle class="Apurímac" cx="599" cy="735.7" id="PEAPU"/>
    <circle class="Huancavelica" cx="502.5" cy="676.7" id="PEHUV"/>
    <circle class="San Martín" cx="410" cy="394" id="PESAM"/>
    <circle class="Huánuco" cx="438" cy="513.5" id="PEHUC"/>
    <circle class="Pasco" cx="486.3" cy="550.1" id="PEPAS"/>
    <circle class="Junín" cx="503.6" cy="603.2" id="PEJUN"/>
  </g>
  <g id="labels">
    <text x="725" y="922.1">Tacna</text>
    <text x="720" y="636.2">Madre de Dios</text>
    <text x="509.8" y="235">Loreto</text>
    <text x="355.5" y="297.7">Amazonas</text>
    <text x="320" y="399.3">Cajamarca</text>
    <text x="250" y="231.6">Tumbes</text>
    <text x="228.7" y="292.7">Piura</text>
    <text x="556.4" y="524.3">Ucayali</text>
    <text x="740" y="789.7">Puno</text>
    <text x="720" y="880.6">Moquegua</text>
    <text x="601.6" y="826.4">Arequipa</text>
    <text x="462.9" y="751.8">Ica</text>
    <text x="410" y="600">Lima</text>
    <text x="396.5" y="636.4" font-size="9">Callao</text>
    <text x="370.1" y="503.3">Áncash</text>
    <text x="300.5" y="435.4">La Libertad</text>
    <text x="252.4" y="371.9">Lambayeque</text>
    <text x="620" y="690.1">Cusco</text>
    <text x="535" y="755">Ayacucho</text>
    <text x="600" y="735.7">Apurímac</text>
    <text x="520" y="686.7">Huancavelica</text>
    <text x="410" y="394">San Martín</text>
    <text x="448" y="520.5">Huánuco</text>
    <text x="490" y="550.1">Pasco</text>
    <text x="490" y="610">Junín</text>
  </g>
</svg>